<svg width="474" height="475" viewBox="0 0 474 475" fill="none" xmlns="http://www.w3.org/2000/svg">
<path d="M474 193.897C473.697 166.971 445.413 120.798 432.321 102.558C431.069 100.805 429.856 99.0516 428.644 97.2578C415.088 77.0835 354.135 -2.24353 236.129 0.96099C236.129 0.96099 86.9702 0.900506 23.5529 133.294C-9.4791 202.221 -7.66083 283.221 28.341 350.637C58.7668 407.592 124.943 470.995 234.199 474.762C331.688 478.123 408.724 399.7 408.724 399.7L217.583 202.624L63.1711 284.914L273.545 130.553L327.75 182.893L327.791 182.873C340.054 197.344 398.784 264.941 408.724 254.38C415.27 248.979 366.176 178.963 353.852 162.557L353.974 162.457C367.449 178.298 424.503 243.638 434.301 233.238C440.746 227.918 393.228 159.917 379.995 142.161L380.056 142.101C393.854 159.595 445.251 225.519 454.888 215.261L457.474 213.608C461.555 210.242 444.807 181.24 428.685 155.846C446.766 178.177 467.878 201.395 474 193.897Z" fill="#0092FF"/>
</svg>
