<svg width="396" height="577" viewBox="0 0 396 577" fill="none" xmlns="http://www.w3.org/2000/svg">
<ellipse cx="11.1429" cy="60.589" rx="11.1429" ry="10.4464" fill="#0092FF"/>
<rect x="15" width="178" height="53" fill="#0092FF"/>
<path d="M33.16 38V20.18H36.4V27.452H39.82L46.336 20.18H50.512L42.448 28.856L50.512 38H46.408L39.82 30.224H36.4V38H33.16ZM67.8637 35.696C66.0397 37.52 63.8197 38.432 61.2037 38.432C58.5877 38.432 56.3677 37.52 54.5437 35.696C52.7197 33.872 51.8077 31.664 51.8077 29.072C51.8077 26.456 52.7197 24.236 54.5437 22.412C56.3677 20.588 58.5877 19.676 61.2037 19.676C63.8197 19.676 66.0397 20.588 67.8637 22.412C69.7117 24.236 70.6357 26.456 70.6357 29.072C70.6357 31.664 69.7117 33.872 67.8637 35.696ZM61.2037 35.516C62.9557 35.54 64.4317 34.94 65.6317 33.716C66.8557 32.468 67.4677 30.932 67.4677 29.108C67.4677 27.284 66.8677 25.748 65.6677 24.5C64.4677 23.252 62.9797 22.628 61.2037 22.628C59.4277 22.628 57.9397 23.252 56.7397 24.5C55.5637 25.748 54.9757 27.284 54.9757 29.108C54.9757 30.932 55.5757 32.468 56.7757 33.716C57.9757 34.94 59.4517 35.54 61.2037 35.516ZM87.6873 20.18H90.8913V38H87.6873V30.476H77.3913V38H74.1873V20.18H77.3913V27.704H87.6873V20.18ZM112.599 43.76V38H95.2108V20.18H98.4148V35.264H108.495V20.18H111.663V35.264H115.587V43.76H112.599ZM126.236 19.712C128.852 19.712 131 20.564 132.68 22.268C134.36 23.948 135.236 26.168 135.308 28.928C135.308 29.336 135.296 29.66 135.272 29.9H120.044C120.212 31.628 120.884 33.02 122.06 34.076C123.26 35.132 124.688 35.66 126.344 35.66C128.696 35.66 130.508 34.832 131.78 33.176L133.832 34.832C133.016 35.984 131.936 36.872 130.592 37.496C129.272 38.096 127.832 38.396 126.272 38.396C123.704 38.396 121.508 37.496 119.684 35.696C117.884 33.872 116.984 31.676 116.984 29.108C116.984 26.444 117.86 24.212 119.612 22.412C121.388 20.612 123.596 19.712 126.236 19.712ZM126.236 22.412C124.748 22.412 123.452 22.856 122.348 23.744C121.268 24.632 120.56 25.796 120.224 27.236H132.212C131.852 25.796 131.144 24.632 130.088 23.744C129.056 22.856 127.772 22.412 126.236 22.412ZM138.488 47V20.18H141.728V22.844C143.432 20.9 145.724 19.928 148.604 19.928C151.028 19.928 153.056 20.816 154.688 22.592C156.344 24.344 157.172 26.516 157.172 29.108C157.172 31.676 156.344 33.848 154.688 35.624C153.056 37.376 151.028 38.252 148.604 38.252C145.772 38.252 143.48 37.292 141.728 35.372V47H138.488ZM143.492 33.608C144.668 34.808 146.12 35.408 147.848 35.408C149.576 35.408 151.016 34.808 152.168 33.608C153.32 32.384 153.896 30.884 153.896 29.108C153.896 27.308 153.32 25.808 152.168 24.608C151.016 23.384 149.576 22.772 147.848 22.772C146.12 22.772 144.668 23.384 143.492 24.608C142.316 25.832 141.728 27.332 141.728 29.108C141.728 30.884 142.316 32.384 143.492 33.608ZM175.049 20.18V22.988H168.281V38H165.077V22.988H158.309V20.18H175.049Z" fill="white"/>
<ellipse cx="11.1429" cy="351.589" rx="11.1429" ry="10.4464" fill="#FF8D00"/>
<rect x="15" y="291" width="121" height="53" fill="#FF8D00"/>
<path d="M32.116 329V326.3L40.36 318.848C41.272 318.032 41.968 317.396 42.448 316.94C42.928 316.46 43.432 315.884 43.96 315.212C44.512 314.54 44.896 313.88 45.112 313.232C45.352 312.584 45.472 311.9 45.472 311.18C45.472 309.716 45.04 308.552 44.176 307.688C43.336 306.824 42.208 306.392 40.792 306.392C39.448 306.392 38.308 306.8 37.372 307.616C36.46 308.432 35.92 309.488 35.752 310.784L32.476 310.352C32.788 308.216 33.712 306.5 35.248 305.204C36.784 303.908 38.656 303.26 40.864 303.26C43.192 303.26 45.076 303.944 46.516 305.312C47.98 306.68 48.712 308.552 48.712 310.928C48.712 312.752 48.208 314.396 47.2 315.86C46.192 317.324 44.788 318.848 42.988 320.432L36.94 326.048H49.144V329H32.116ZM51.6277 329V326.3L59.8717 318.848C60.7837 318.032 61.4797 317.396 61.9597 316.94C62.4397 316.46 62.9437 315.884 63.4717 315.212C64.0237 314.54 64.4077 313.88 64.6237 313.232C64.8637 312.584 64.9837 311.9 64.9837 311.18C64.9837 309.716 64.5517 308.552 63.6877 307.688C62.8477 306.824 61.7197 306.392 60.3037 306.392C58.9597 306.392 57.8197 306.8 56.8837 307.616C55.9717 308.432 55.4317 309.488 55.2637 310.784L51.9877 310.352C52.2997 308.216 53.2237 306.5 54.7597 305.204C56.2957 303.908 58.1677 303.26 60.3757 303.26C62.7037 303.26 64.5877 303.944 66.0277 305.312C67.4917 306.68 68.2237 308.552 68.2237 310.928C68.2237 312.752 67.7197 314.396 66.7117 315.86C65.7037 317.324 64.2997 318.848 62.4997 320.432L56.4517 326.048H68.6557V329H51.6277ZM74.5594 328.712C74.1514 329.096 73.6714 329.288 73.1194 329.288C72.5674 329.288 72.0874 329.096 71.6794 328.712C71.2954 328.304 71.1034 327.812 71.1034 327.236C71.1034 326.708 71.2954 326.252 71.6794 325.868C72.0874 325.484 72.5674 325.292 73.1194 325.292C73.6714 325.292 74.1514 325.484 74.5594 325.868C74.9674 326.252 75.1714 326.708 75.1714 327.236C75.1714 327.812 74.9674 328.304 74.5594 328.712ZM87.4421 329C84.4661 329 82.1141 327.848 80.3861 325.544C78.6581 323.24 77.7941 320.192 77.7941 316.4C77.7941 312.608 78.6581 309.56 80.3861 307.256C82.1141 304.952 84.4661 303.8 87.4421 303.8C90.3941 303.8 92.7341 304.952 94.4621 307.256C96.1901 309.56 97.0541 312.608 97.0541 316.4C97.0541 320.192 96.1901 323.24 94.4621 325.544C92.7341 327.848 90.3941 329 87.4421 329ZM87.4421 325.76C89.4341 325.76 90.9701 324.92 92.0501 323.24C93.1541 321.536 93.7061 319.256 93.7061 316.4C93.7061 313.544 93.1541 311.276 92.0501 309.596C90.9701 307.892 89.4341 307.04 87.4421 307.04C85.4501 307.04 83.9021 307.892 82.7981 309.596C81.6941 311.276 81.1421 313.544 81.1421 316.4C81.1421 319.256 81.6821 321.536 82.7621 323.24C83.8661 324.92 85.4261 325.76 87.4421 325.76ZM108.401 329.54C106.217 329.54 104.297 328.916 102.641 327.668C101.009 326.396 100.001 324.776 99.6168 322.808L102.857 321.908C103.025 323.276 103.625 324.38 104.657 325.22C105.689 326.06 106.925 326.48 108.365 326.48C109.973 326.48 111.293 325.976 112.325 324.968C113.381 323.96 113.909 322.676 113.909 321.116C113.909 319.556 113.393 318.296 112.361 317.336C111.353 316.352 110.105 315.86 108.617 315.86C106.433 315.86 104.801 316.652 103.721 318.236L100.805 316.832L101.597 303.8H115.241V306.824H104.369L103.937 314.636C105.233 313.58 106.925 313.052 109.013 313.052C111.269 313.052 113.189 313.796 114.773 315.284C116.381 316.748 117.185 318.68 117.185 321.08C117.185 323.6 116.357 325.64 114.701 327.2C113.069 328.76 110.969 329.54 108.401 329.54Z" fill="white"/>
<ellipse cx="183.143" cy="556.589" rx="11.1429" ry="10.4464" fill="#FF8D00"/>
<rect x="187" y="496" width="200" height="53" fill="#FF8D00"/>
<path d="M209.732 534C213.356 530.28 215.84 526.644 217.184 523.092C215.96 524.388 214.352 525.036 212.36 525.036C210.032 525.06 208.076 524.34 206.492 522.876C204.908 521.388 204.116 519.492 204.116 517.188C204.116 514.74 204.956 512.736 206.636 511.176C208.34 509.592 210.464 508.8 213.008 508.8C215.576 508.8 217.688 509.592 219.344 511.176C221 512.76 221.828 514.824 221.828 517.368C221.828 520.032 221 522.888 219.344 525.936C217.688 528.96 215.732 531.648 213.476 534H209.732ZM209.012 520.932C210.092 521.892 211.424 522.372 213.008 522.372C214.592 522.372 215.912 521.892 216.968 520.932C218.024 519.972 218.552 518.724 218.552 517.188C218.552 515.652 218.024 514.38 216.968 513.372C215.912 512.364 214.592 511.86 213.008 511.86C211.424 511.86 210.092 512.364 209.012 513.372C207.956 514.356 207.428 515.628 207.428 517.188C207.428 518.724 207.956 519.972 209.012 520.932ZM227.324 518.736C226.964 519.096 226.52 519.276 225.992 519.276C225.464 519.276 225.008 519.096 224.624 518.736C224.264 518.352 224.084 517.884 224.084 517.332C224.084 516.852 224.264 516.432 224.624 516.072C225.008 515.712 225.464 515.532 225.992 515.532C226.52 515.532 226.964 515.712 227.324 516.072C227.708 516.432 227.9 516.852 227.9 517.332C227.9 517.884 227.708 518.352 227.324 518.736ZM227.324 533.568C226.964 533.928 226.52 534.108 225.992 534.108C225.464 534.108 225.008 533.928 224.624 533.568C224.264 533.184 224.084 532.728 224.084 532.2C224.084 531.72 224.264 531.3 224.624 530.94C225.008 530.556 225.464 530.364 225.992 530.364C226.52 530.364 226.964 530.556 227.324 530.94C227.708 531.3 227.9 531.72 227.9 532.2C227.9 532.728 227.708 533.184 227.324 533.568ZM240.176 534C237.2 534 234.848 532.848 233.12 530.544C231.392 528.24 230.528 525.192 230.528 521.4C230.528 517.608 231.392 514.56 233.12 512.256C234.848 509.952 237.2 508.8 240.176 508.8C243.128 508.8 245.468 509.952 247.196 512.256C248.924 514.56 249.788 517.608 249.788 521.4C249.788 525.192 248.924 528.24 247.196 530.544C245.468 532.848 243.128 534 240.176 534ZM240.176 530.76C242.168 530.76 243.704 529.92 244.784 528.24C245.888 526.536 246.44 524.256 246.44 521.4C246.44 518.544 245.888 516.276 244.784 514.596C243.704 512.892 242.168 512.04 240.176 512.04C238.184 512.04 236.636 512.892 235.532 514.596C234.428 516.276 233.876 518.544 233.876 521.4C233.876 524.256 234.416 526.536 235.496 528.24C236.6 529.92 238.16 530.76 240.176 530.76ZM262.325 534C259.349 534 256.997 532.848 255.269 530.544C253.541 528.24 252.677 525.192 252.677 521.4C252.677 517.608 253.541 514.56 255.269 512.256C256.997 509.952 259.349 508.8 262.325 508.8C265.277 508.8 267.617 509.952 269.345 512.256C271.073 514.56 271.937 517.608 271.937 521.4C271.937 525.192 271.073 528.24 269.345 530.544C267.617 532.848 265.277 534 262.325 534ZM262.325 530.76C264.317 530.76 265.853 529.92 266.933 528.24C268.037 526.536 268.589 524.256 268.589 521.4C268.589 518.544 268.037 516.276 266.933 514.596C265.853 512.892 264.317 512.04 262.325 512.04C260.333 512.04 258.785 512.892 257.681 514.596C256.577 516.276 256.025 518.544 256.025 521.4C256.025 524.256 256.565 526.536 257.645 528.24C258.749 529.92 260.309 530.76 262.325 530.76ZM274.568 525.684V522.696H287.816V525.684H274.568ZM293.423 534V514.056C292.559 515.04 291.251 515.508 289.499 515.46V512.436C291.995 512.436 293.303 511.224 293.423 508.8H296.807V534H293.423ZM316.132 532.416C314.5 533.808 312.376 534.504 309.76 534.504C307.144 534.504 305.008 533.808 303.352 532.416C301.72 531.024 300.904 529.26 300.904 527.124C300.904 525.516 301.36 524.16 302.272 523.056C303.184 521.952 304.42 521.22 305.98 520.86C304.66 520.476 303.616 519.792 302.848 518.808C302.08 517.824 301.696 516.636 301.696 515.244C301.696 513.252 302.44 511.596 303.928 510.276C305.416 508.932 307.36 508.26 309.76 508.26C312.16 508.26 314.104 508.932 315.592 510.276C317.08 511.596 317.824 513.252 317.824 515.244C317.824 516.636 317.44 517.824 316.672 518.808C315.904 519.792 314.86 520.476 313.54 520.86C315.1 521.22 316.336 521.952 317.248 523.056C318.16 524.16 318.616 525.516 318.616 527.124C318.616 529.26 317.788 531.024 316.132 532.416ZM306.268 518.592C307.132 519.336 308.296 519.708 309.76 519.708C311.224 519.708 312.376 519.336 313.216 518.592C314.08 517.848 314.512 516.852 314.512 515.604C314.512 514.308 314.068 513.264 313.18 512.472C312.316 511.656 311.176 511.248 309.76 511.248C308.344 511.248 307.192 511.656 306.304 512.472C305.44 513.264 305.008 514.308 305.008 515.604C305.008 516.852 305.428 517.848 306.268 518.592ZM309.76 531.48C311.344 531.48 312.628 531.06 313.612 530.22C314.62 529.356 315.124 528.216 315.124 526.8C315.124 525.408 314.644 524.316 313.684 523.524C312.748 522.732 311.44 522.336 309.76 522.336C308.08 522.336 306.76 522.732 305.8 523.524C304.864 524.316 304.396 525.408 304.396 526.8C304.396 528.216 304.9 529.356 305.908 530.22C306.916 531.06 308.2 531.48 309.76 531.48ZM324.144 518.736C323.784 519.096 323.34 519.276 322.812 519.276C322.284 519.276 321.828 519.096 321.444 518.736C321.084 518.352 320.904 517.884 320.904 517.332C320.904 516.852 321.084 516.432 321.444 516.072C321.828 515.712 322.284 515.532 322.812 515.532C323.34 515.532 323.784 515.712 324.144 516.072C324.528 516.432 324.72 516.852 324.72 517.332C324.72 517.884 324.528 518.352 324.144 518.736ZM324.144 533.568C323.784 533.928 323.34 534.108 322.812 534.108C322.284 534.108 321.828 533.928 321.444 533.568C321.084 533.184 320.904 532.728 320.904 532.2C320.904 531.72 321.084 531.3 321.444 530.94C321.828 530.556 322.284 530.364 322.812 530.364C323.34 530.364 323.784 530.556 324.144 530.94C324.528 531.3 324.72 531.72 324.72 532.2C324.72 532.728 324.528 533.184 324.144 533.568ZM336.997 534C334.021 534 331.669 532.848 329.941 530.544C328.213 528.24 327.349 525.192 327.349 521.4C327.349 517.608 328.213 514.56 329.941 512.256C331.669 509.952 334.021 508.8 336.997 508.8C339.949 508.8 342.289 509.952 344.017 512.256C345.745 514.56 346.609 517.608 346.609 521.4C346.609 525.192 345.745 528.24 344.017 530.544C342.289 532.848 339.949 534 336.997 534ZM336.997 530.76C338.989 530.76 340.525 529.92 341.605 528.24C342.709 526.536 343.261 524.256 343.261 521.4C343.261 518.544 342.709 516.276 341.605 514.596C340.525 512.892 338.989 512.04 336.997 512.04C335.005 512.04 333.457 512.892 332.353 514.596C331.249 516.276 330.697 518.544 330.697 521.4C330.697 524.256 331.237 526.536 332.317 528.24C333.421 529.92 334.981 530.76 336.997 530.76ZM359.145 534C356.169 534 353.817 532.848 352.089 530.544C350.361 528.24 349.497 525.192 349.497 521.4C349.497 517.608 350.361 514.56 352.089 512.256C353.817 509.952 356.169 508.8 359.145 508.8C362.097 508.8 364.437 509.952 366.165 512.256C367.893 514.56 368.757 517.608 368.757 521.4C368.757 525.192 367.893 528.24 366.165 530.544C364.437 532.848 362.097 534 359.145 534ZM359.145 530.76C361.137 530.76 362.673 529.92 363.753 528.24C364.857 526.536 365.409 524.256 365.409 521.4C365.409 518.544 364.857 516.276 363.753 514.596C362.673 512.892 361.137 512.04 359.145 512.04C357.153 512.04 355.605 512.892 354.501 514.596C353.397 516.276 352.845 518.544 352.845 521.4C352.845 524.256 353.385 526.536 354.465 528.24C355.569 529.92 357.129 530.76 359.145 530.76Z" fill="white"/>
<ellipse cx="97.1429" cy="146.589" rx="11.1429" ry="10.4464" fill="#0092FF"/>
<rect x="100" y="86" width="286" height="53" fill="#0092FF"/>
<path d="M136.952 121.264H140.552V129.76H137.564V124H119.744V129.76H116.756V121.264H119.96C120.848 120.112 121.424 118.876 121.688 117.556C121.952 116.236 122.084 114.184 122.084 111.4V106.18H136.952V121.264ZM123.308 121.264H133.856V108.952H125.144V112.48C125.144 114.856 125 116.692 124.712 117.988C124.448 119.26 123.98 120.352 123.308 121.264ZM151.189 105.712C153.805 105.712 155.953 106.564 157.633 108.268C159.313 109.948 160.189 112.168 160.261 114.928C160.261 115.336 160.249 115.66 160.225 115.9H144.997C145.165 117.628 145.837 119.02 147.013 120.076C148.213 121.132 149.641 121.66 151.297 121.66C153.649 121.66 155.461 120.832 156.733 119.176L158.785 120.832C157.969 121.984 156.889 122.872 155.545 123.496C154.225 124.096 152.785 124.396 151.225 124.396C148.657 124.396 146.461 123.496 144.637 121.696C142.837 119.872 141.937 117.676 141.937 115.108C141.937 112.444 142.813 110.212 144.565 108.412C146.341 106.612 148.549 105.712 151.189 105.712ZM151.189 108.412C149.701 108.412 148.405 108.856 147.301 109.744C146.221 110.632 145.513 111.796 145.177 113.236H157.165C156.805 111.796 156.097 110.632 155.041 109.744C154.009 108.856 152.725 108.412 151.189 108.412ZM176.941 106.18H180.145V124H176.941V116.476H166.645V124H163.441V106.18H166.645V113.704H176.941V106.18ZM184.357 124V106.18H187.597V112.804H193.285C195.181 112.804 196.669 113.32 197.749 114.352C198.829 115.384 199.369 116.74 199.369 118.42C199.369 120.052 198.829 121.396 197.749 122.452C196.669 123.484 195.181 124 193.285 124H184.357ZM187.597 121.192H192.385C194.881 121.192 196.129 120.268 196.129 118.42C196.129 116.548 194.881 115.612 192.385 115.612H187.597V121.192ZM210.97 124V106.18H220.006C221.878 106.18 223.318 106.612 224.326 107.476C225.358 108.34 225.874 109.492 225.874 110.932C225.874 112.828 225.034 114.088 223.354 114.712C225.346 115.384 226.342 116.8 226.342 118.96C226.342 120.472 225.802 121.696 224.722 122.632C223.666 123.544 222.118 124 220.078 124H210.97ZM214.21 113.416H219.25C220.402 113.416 221.266 113.224 221.842 112.84C222.418 112.456 222.706 111.82 222.706 110.932C222.706 109.588 221.554 108.916 219.25 108.916H214.21V113.416ZM214.21 121.264H219.322C220.666 121.264 221.626 121.096 222.202 120.76C222.802 120.4 223.102 119.776 223.102 118.888C223.102 117.928 222.802 117.232 222.202 116.8C221.602 116.368 220.642 116.152 219.322 116.152H214.21V121.264ZM237.849 105.712C240.465 105.712 242.613 106.564 244.293 108.268C245.973 109.948 246.849 112.168 246.921 114.928C246.921 115.336 246.909 115.66 246.885 115.9H231.657C231.825 117.628 232.497 119.02 233.673 120.076C234.873 121.132 236.301 121.66 237.957 121.66C240.309 121.66 242.121 120.832 243.393 119.176L245.445 120.832C244.629 121.984 243.549 122.872 242.205 123.496C240.885 124.096 239.445 124.396 237.885 124.396C235.317 124.396 233.121 123.496 231.297 121.696C229.497 119.872 228.597 117.676 228.597 115.108C228.597 112.444 229.473 110.212 231.225 108.412C233.001 106.612 235.209 105.712 237.849 105.712ZM237.849 108.412C236.361 108.412 235.065 108.856 233.961 109.744C232.881 110.632 232.173 111.796 231.837 113.236H243.825C243.465 111.796 242.757 110.632 241.701 109.744C240.669 108.856 239.385 108.412 237.849 108.412ZM249.739 124.036C249.211 124.036 248.803 124.024 248.515 124V121.3C249.883 121.396 250.831 121.096 251.359 120.4C251.911 119.704 252.187 118.408 252.187 116.512V106.18H266.731V124H263.527V108.952H255.355V116.944C255.355 119.392 254.899 121.192 253.987 122.344C253.099 123.472 251.683 124.036 249.739 124.036ZM284.663 106.18H287.723V124H284.663V110.608L274.115 124H271.055V106.18H274.115V119.572L284.663 106.18ZM292.043 124V106.18H295.283V113.452H298.703L305.219 106.18H309.395L301.331 114.856L309.395 124H305.291L298.703 116.224H295.283V124H292.043ZM319.079 124.252C316.655 124.252 314.615 123.376 312.959 121.624C311.327 119.848 310.511 117.676 310.511 115.108C310.511 112.516 311.327 110.344 312.959 108.592C314.615 106.816 316.655 105.928 319.079 105.928C321.959 105.928 324.251 106.9 325.955 108.844V106.18H329.195V124H325.955V121.372C324.203 123.292 321.911 124.252 319.079 124.252ZM315.479 119.608C316.655 120.808 318.107 121.408 319.835 121.408C321.563 121.408 323.015 120.808 324.191 119.608C325.367 118.384 325.955 116.884 325.955 115.108C325.955 113.332 325.367 111.832 324.191 110.608C323.015 109.384 321.563 108.772 319.835 108.772C318.107 108.772 316.655 109.384 315.479 110.608C314.303 111.832 313.715 113.332 313.715 115.108C313.715 116.884 314.303 118.384 315.479 119.608ZM347.027 106.18H350.231V124H347.027V116.476H336.731V124H333.527V106.18H336.731V113.704H347.027V106.18ZM362.111 124.252C359.687 124.252 357.647 123.376 355.991 121.624C354.359 119.848 353.543 117.676 353.543 115.108C353.543 112.516 354.359 110.344 355.991 108.592C357.647 106.816 359.687 105.928 362.111 105.928C364.991 105.928 367.283 106.9 368.987 108.844V106.18H372.227V124H368.987V121.372C367.235 123.292 364.943 124.252 362.111 124.252ZM358.511 119.608C359.687 120.808 361.139 121.408 362.867 121.408C364.595 121.408 366.047 120.808 367.223 119.608C368.399 118.384 368.987 116.884 368.987 115.108C368.987 113.332 368.399 111.832 367.223 110.608C366.047 109.384 364.595 108.772 362.867 108.772C361.139 108.772 359.687 109.384 358.511 110.608C357.335 111.832 356.747 113.332 356.747 115.108C356.747 116.884 357.335 118.384 358.511 119.608Z" fill="white"/>
</svg>
