<svg width="396" height="577" viewBox="0 0 396 577" fill="none" xmlns="http://www.w3.org/2000/svg">
<ellipse cx="11.1429" cy="60.589" rx="11.1429" ry="10.4464" fill="#0092FF"/>
<rect x="15" width="178" height="53" fill="#0092FF"/>
<path d="M46.768 20.18H49.828V38H46.768V24.608L36.22 38H33.16V20.18H36.22V33.572L46.768 20.18ZM67.2163 20.18V22.988H57.3883V38H54.1483V20.18H67.2163ZM70.0038 47V20.18H73.2438V22.844C74.9478 20.9 77.2398 19.928 80.1198 19.928C82.5438 19.928 84.5718 20.816 86.2038 22.592C87.8598 24.344 88.6878 26.516 88.6878 29.108C88.6878 31.676 87.8598 33.848 86.2038 35.624C84.5718 37.376 82.5438 38.252 80.1198 38.252C77.2878 38.252 74.9958 37.292 73.2438 35.372V47H70.0038ZM75.0078 33.608C76.1838 34.808 77.6358 35.408 79.3638 35.408C81.0918 35.408 82.5318 34.808 83.6838 33.608C84.8358 32.384 85.4118 30.884 85.4118 29.108C85.4118 27.308 84.8358 25.808 83.6838 24.608C82.5318 23.384 81.0918 22.772 79.3638 22.772C77.6358 22.772 76.1838 23.384 75.0078 24.608C73.8318 25.832 73.2438 27.332 73.2438 29.108C73.2438 30.884 73.8318 32.384 75.0078 33.608ZM107.274 35.696C105.45 37.52 103.23 38.432 100.614 38.432C97.9979 38.432 95.7779 37.52 93.9539 35.696C92.1299 33.872 91.2179 31.664 91.2179 29.072C91.2179 26.456 92.1299 24.236 93.9539 22.412C95.7779 20.588 97.9979 19.676 100.614 19.676C103.23 19.676 105.45 20.588 107.274 22.412C109.122 24.236 110.046 26.456 110.046 29.072C110.046 31.664 109.122 33.872 107.274 35.696ZM100.614 35.516C102.366 35.54 103.842 34.94 105.042 33.716C106.266 32.468 106.878 30.932 106.878 29.108C106.878 27.284 106.278 25.748 105.078 24.5C103.878 23.252 102.39 22.628 100.614 22.628C98.8379 22.628 97.3499 23.252 96.1499 24.5C94.9739 25.748 94.3859 27.284 94.3859 29.108C94.3859 30.932 94.9859 32.468 96.1859 33.716C97.3859 34.94 98.8619 35.54 100.614 35.516ZM113.49 38V20.18H122.526C124.398 20.18 125.838 20.612 126.846 21.476C127.878 22.34 128.394 23.492 128.394 24.932C128.394 26.828 127.554 28.088 125.874 28.712C127.866 29.384 128.862 30.8 128.862 32.96C128.862 34.472 128.322 35.696 127.242 36.632C126.186 37.544 124.638 38 122.598 38H113.49ZM116.729 27.416H121.77C122.922 27.416 123.786 27.224 124.362 26.84C124.938 26.456 125.226 25.82 125.226 24.932C125.226 23.588 124.074 22.916 121.77 22.916H116.729V27.416ZM116.729 35.264H121.842C123.186 35.264 124.146 35.096 124.722 34.76C125.322 34.4 125.622 33.776 125.622 32.888C125.622 31.928 125.322 31.232 124.722 30.8C124.122 30.368 123.162 30.152 121.842 30.152H116.729V35.264ZM147.317 35.696C145.493 37.52 143.273 38.432 140.657 38.432C138.041 38.432 135.821 37.52 133.997 35.696C132.173 33.872 131.261 31.664 131.261 29.072C131.261 26.456 132.173 24.236 133.997 22.412C135.821 20.588 138.041 19.676 140.657 19.676C143.273 19.676 145.493 20.588 147.317 22.412C149.165 24.236 150.089 26.456 150.089 29.072C150.089 31.664 149.165 33.872 147.317 35.696ZM140.657 35.516C142.409 35.54 143.885 34.94 145.085 33.716C146.309 32.468 146.921 30.932 146.921 29.108C146.921 27.284 146.321 25.748 145.121 24.5C143.921 23.252 142.433 22.628 140.657 22.628C138.881 22.628 137.393 23.252 136.193 24.5C135.017 25.748 134.429 27.284 134.429 29.108C134.429 30.932 135.029 32.468 136.229 33.716C137.429 34.94 138.905 35.54 140.657 35.516ZM161.992 17.012C160.528 17.012 159.376 16.604 158.536 15.788C157.72 14.972 157.288 13.976 157.24 12.8H159.04C159.112 13.448 159.388 14.036 159.868 14.564C160.348 15.068 161.056 15.32 161.992 15.32C162.952 15.32 163.672 15.068 164.152 14.564C164.632 14.036 164.908 13.448 164.98 12.8H166.78C166.732 13.976 166.288 14.972 165.448 15.788C164.632 16.604 163.48 17.012 161.992 17.012ZM167.248 20.18H170.308V38H167.248V24.608L156.7 38H153.64V20.18H156.7V33.572L167.248 20.18Z" fill="white"/>
<ellipse cx="11.1429" cy="351.589" rx="11.1429" ry="10.4464" fill="#FF8D00"/>
<rect x="15" y="291" width="121" height="53" fill="#FF8D00"/>
<path d="M32.116 329V326.3L40.36 318.848C41.272 318.032 41.968 317.396 42.448 316.94C42.928 316.46 43.432 315.884 43.96 315.212C44.512 314.54 44.896 313.88 45.112 313.232C45.352 312.584 45.472 311.9 45.472 311.18C45.472 309.716 45.04 308.552 44.176 307.688C43.336 306.824 42.208 306.392 40.792 306.392C39.448 306.392 38.308 306.8 37.372 307.616C36.46 308.432 35.92 309.488 35.752 310.784L32.476 310.352C32.788 308.216 33.712 306.5 35.248 305.204C36.784 303.908 38.656 303.26 40.864 303.26C43.192 303.26 45.076 303.944 46.516 305.312C47.98 306.68 48.712 308.552 48.712 310.928C48.712 312.752 48.208 314.396 47.2 315.86C46.192 317.324 44.788 318.848 42.988 320.432L36.94 326.048H49.144V329H32.116ZM66.7812 327.2C65.1012 328.76 62.9772 329.54 60.4092 329.54C57.8412 329.54 55.7292 328.748 54.0732 327.164C52.4412 325.58 51.6252 323.516 51.6252 320.972C51.6252 318.38 52.4772 315.428 54.1812 312.116C55.8852 308.78 57.8172 306.008 59.9772 303.8H63.6852C62.2692 305.216 60.8532 307.004 59.4372 309.164C58.0452 311.3 56.9652 313.364 56.1972 315.356C57.3972 314.132 59.0052 313.496 61.0212 313.448C63.3732 313.448 65.3412 314.168 66.9252 315.608C68.5092 317.024 69.3012 318.872 69.3012 321.152C69.3012 323.624 68.4612 325.64 66.7812 327.2ZM56.4852 324.968C57.5412 325.976 58.8612 326.48 60.4452 326.48C62.0292 326.48 63.3492 325.988 64.4052 325.004C65.4852 323.996 66.0252 322.712 66.0252 321.152C66.0252 319.616 65.4852 318.368 64.4052 317.408C63.3492 316.448 62.0292 315.968 60.4452 315.968C58.8612 315.968 57.5412 316.448 56.4852 317.408C55.4292 318.368 54.9012 319.616 54.9012 321.152C54.9012 322.688 55.4292 323.96 56.4852 324.968ZM74.8407 328.712C74.4327 329.096 73.9527 329.288 73.4007 329.288C72.8487 329.288 72.3687 329.096 71.9607 328.712C71.5767 328.304 71.3847 327.812 71.3847 327.236C71.3847 326.708 71.5767 326.252 71.9607 325.868C72.3687 325.484 72.8487 325.292 73.4007 325.292C73.9527 325.292 74.4327 325.484 74.8407 325.868C75.2487 326.252 75.4527 326.708 75.4527 327.236C75.4527 327.812 75.2487 328.304 74.8407 328.712ZM87.7233 329C84.7473 329 82.3953 327.848 80.6673 325.544C78.9393 323.24 78.0753 320.192 78.0753 316.4C78.0753 312.608 78.9393 309.56 80.6673 307.256C82.3953 304.952 84.7473 303.8 87.7233 303.8C90.6753 303.8 93.0153 304.952 94.7433 307.256C96.4713 309.56 97.3353 312.608 97.3353 316.4C97.3353 320.192 96.4713 323.24 94.7433 325.544C93.0153 327.848 90.6753 329 87.7233 329ZM87.7233 325.76C89.7153 325.76 91.2513 324.92 92.3313 323.24C93.4353 321.536 93.9873 319.256 93.9873 316.4C93.9873 313.544 93.4353 311.276 92.3313 309.596C91.2513 307.892 89.7153 307.04 87.7233 307.04C85.7313 307.04 84.1833 307.892 83.0793 309.596C81.9753 311.276 81.4233 313.544 81.4233 316.4C81.4233 319.256 81.9633 321.536 83.0433 323.24C84.1473 324.92 85.7073 325.76 87.7233 325.76ZM108.682 329.54C106.498 329.54 104.578 328.916 102.922 327.668C101.29 326.396 100.282 324.776 99.8981 322.808L103.138 321.908C103.306 323.276 103.906 324.38 104.938 325.22C105.97 326.06 107.206 326.48 108.646 326.48C110.254 326.48 111.574 325.976 112.606 324.968C113.662 323.96 114.19 322.676 114.19 321.116C114.19 319.556 113.674 318.296 112.642 317.336C111.634 316.352 110.386 315.86 108.898 315.86C106.714 315.86 105.082 316.652 104.002 318.236L101.086 316.832L101.878 303.8H115.522V306.824H104.65L104.218 314.636C105.514 313.58 107.206 313.052 109.294 313.052C111.55 313.052 113.47 313.796 115.054 315.284C116.662 316.748 117.466 318.68 117.466 321.08C117.466 323.6 116.638 325.64 114.982 327.2C113.35 328.76 111.25 329.54 108.682 329.54Z" fill="white"/>
<ellipse cx="183.609" cy="556.589" rx="11.6093" ry="10.4464" fill="#FF8D00"/>
<rect x="187.628" y="496" width="208.372" height="53" fill="#FF8D00"/>
<path d="M207.536 534V514.056C206.672 515.04 205.364 515.508 203.612 515.46V512.436C206.108 512.436 207.416 511.224 207.536 508.8H210.92V534H207.536ZM227.65 534V528.6H214.834V525.792L221.494 508.8H224.878L218.146 525.792H227.65V515.028H230.89V525.792H233.986V528.6H230.89V534H227.65ZM239.136 518.736C238.776 519.096 238.332 519.276 237.804 519.276C237.276 519.276 236.82 519.096 236.436 518.736C236.076 518.352 235.896 517.884 235.896 517.332C235.896 516.852 236.076 516.432 236.436 516.072C236.82 515.712 237.276 515.532 237.804 515.532C238.332 515.532 238.776 515.712 239.136 516.072C239.52 516.432 239.712 516.852 239.712 517.332C239.712 517.884 239.52 518.352 239.136 518.736ZM239.136 533.568C238.776 533.928 238.332 534.108 237.804 534.108C237.276 534.108 236.82 533.928 236.436 533.568C236.076 533.184 235.896 532.728 235.896 532.2C235.896 531.72 236.076 531.3 236.436 530.94C236.82 530.556 237.276 530.364 237.804 530.364C238.332 530.364 238.776 530.556 239.136 530.94C239.52 531.3 239.712 531.72 239.712 532.2C239.712 532.728 239.52 533.184 239.136 533.568ZM251.989 534C249.013 534 246.661 532.848 244.933 530.544C243.205 528.24 242.341 525.192 242.341 521.4C242.341 517.608 243.205 514.56 244.933 512.256C246.661 509.952 249.013 508.8 251.989 508.8C254.941 508.8 257.281 509.952 259.009 512.256C260.737 514.56 261.601 517.608 261.601 521.4C261.601 525.192 260.737 528.24 259.009 530.544C257.281 532.848 254.941 534 251.989 534ZM251.989 530.76C253.981 530.76 255.517 529.92 256.597 528.24C257.701 526.536 258.253 524.256 258.253 521.4C258.253 518.544 257.701 516.276 256.597 514.596C255.517 512.892 253.981 512.04 251.989 512.04C249.997 512.04 248.449 512.892 247.345 514.596C246.241 516.276 245.689 518.544 245.689 521.4C245.689 524.256 246.229 526.536 247.309 528.24C248.413 529.92 249.973 530.76 251.989 530.76ZM274.137 534C271.161 534 268.809 532.848 267.081 530.544C265.353 528.24 264.489 525.192 264.489 521.4C264.489 517.608 265.353 514.56 267.081 512.256C268.809 509.952 271.161 508.8 274.137 508.8C277.089 508.8 279.429 509.952 281.157 512.256C282.885 514.56 283.749 517.608 283.749 521.4C283.749 525.192 282.885 528.24 281.157 530.544C279.429 532.848 277.089 534 274.137 534ZM274.137 530.76C276.129 530.76 277.665 529.92 278.745 528.24C279.849 526.536 280.401 524.256 280.401 521.4C280.401 518.544 279.849 516.276 278.745 514.596C277.665 512.892 276.129 512.04 274.137 512.04C272.145 512.04 270.597 512.892 269.493 514.596C268.389 516.276 267.837 518.544 267.837 521.4C267.837 524.256 268.377 526.536 269.457 528.24C270.561 529.92 272.121 530.76 274.137 530.76ZM286.381 525.684V522.696H299.629V525.684H286.381ZM305.235 534V514.056C304.371 515.04 303.063 515.508 301.311 515.46V512.436C303.807 512.436 305.115 511.224 305.235 508.8H308.619V534H305.235ZM318.224 534C321.848 530.28 324.332 526.644 325.676 523.092C324.452 524.388 322.844 525.036 320.852 525.036C318.524 525.06 316.568 524.34 314.984 522.876C313.4 521.388 312.608 519.492 312.608 517.188C312.608 514.74 313.448 512.736 315.128 511.176C316.832 509.592 318.956 508.8 321.5 508.8C324.068 508.8 326.18 509.592 327.836 511.176C329.492 512.76 330.32 514.824 330.32 517.368C330.32 520.032 329.492 522.888 327.836 525.936C326.18 528.96 324.224 531.648 321.968 534H318.224ZM317.504 520.932C318.584 521.892 319.916 522.372 321.5 522.372C323.084 522.372 324.404 521.892 325.46 520.932C326.516 519.972 327.044 518.724 327.044 517.188C327.044 515.652 326.516 514.38 325.46 513.372C324.404 512.364 323.084 511.86 321.5 511.86C319.916 511.86 318.584 512.364 317.504 513.372C316.448 514.356 315.92 515.628 315.92 517.188C315.92 518.724 316.448 519.972 317.504 520.932ZM335.816 518.736C335.456 519.096 335.012 519.276 334.484 519.276C333.956 519.276 333.5 519.096 333.116 518.736C332.756 518.352 332.576 517.884 332.576 517.332C332.576 516.852 332.756 516.432 333.116 516.072C333.5 515.712 333.956 515.532 334.484 515.532C335.012 515.532 335.456 515.712 335.816 516.072C336.2 516.432 336.392 516.852 336.392 517.332C336.392 517.884 336.2 518.352 335.816 518.736ZM335.816 533.568C335.456 533.928 335.012 534.108 334.484 534.108C333.956 534.108 333.5 533.928 333.116 533.568C332.756 533.184 332.576 532.728 332.576 532.2C332.576 531.72 332.756 531.3 333.116 530.94C333.5 530.556 333.956 530.364 334.484 530.364C335.012 530.364 335.456 530.556 335.816 530.94C336.2 531.3 336.392 531.72 336.392 532.2C336.392 532.728 336.2 533.184 335.816 533.568ZM348.669 534C345.693 534 343.341 532.848 341.613 530.544C339.885 528.24 339.021 525.192 339.021 521.4C339.021 517.608 339.885 514.56 341.613 512.256C343.341 509.952 345.693 508.8 348.669 508.8C351.621 508.8 353.961 509.952 355.689 512.256C357.417 514.56 358.281 517.608 358.281 521.4C358.281 525.192 357.417 528.24 355.689 530.544C353.961 532.848 351.621 534 348.669 534ZM348.669 530.76C350.661 530.76 352.197 529.92 353.277 528.24C354.381 526.536 354.933 524.256 354.933 521.4C354.933 518.544 354.381 516.276 353.277 514.596C352.197 512.892 350.661 512.04 348.669 512.04C346.677 512.04 345.129 512.892 344.025 514.596C342.921 516.276 342.369 518.544 342.369 521.4C342.369 524.256 342.909 526.536 343.989 528.24C345.093 529.92 346.653 530.76 348.669 530.76ZM370.817 534C367.841 534 365.489 532.848 363.761 530.544C362.033 528.24 361.169 525.192 361.169 521.4C361.169 517.608 362.033 514.56 363.761 512.256C365.489 509.952 367.841 508.8 370.817 508.8C373.769 508.8 376.109 509.952 377.837 512.256C379.565 514.56 380.429 517.608 380.429 521.4C380.429 525.192 379.565 528.24 377.837 530.544C376.109 532.848 373.769 534 370.817 534ZM370.817 530.76C372.809 530.76 374.345 529.92 375.425 528.24C376.529 526.536 377.081 524.256 377.081 521.4C377.081 518.544 376.529 516.276 375.425 514.596C374.345 512.892 372.809 512.04 370.817 512.04C368.825 512.04 367.277 512.892 366.173 514.596C365.069 516.276 364.517 518.544 364.517 521.4C364.517 524.256 365.057 526.536 366.137 528.24C367.241 529.92 368.801 530.76 370.817 530.76Z" fill="white"/>
<ellipse cx="97.1429" cy="146.589" rx="11.1429" ry="10.4464" fill="#0092FF"/>
<rect x="100" y="86" width="224" height="53" fill="#0092FF"/>
<path d="M142.964 115.144C142.964 117.52 142.04 119.536 140.192 121.192C138.368 122.848 135.512 123.784 131.624 124V133H128.528V124C124.64 123.784 121.772 122.848 119.924 121.192C118.076 119.536 117.152 117.52 117.152 115.144C117.152 112.744 118.076 110.704 119.924 109.024C121.772 107.344 124.64 106.396 128.528 106.18V98.8H131.624V106.18C135.488 106.396 138.344 107.344 140.192 109.024C142.04 110.704 142.964 112.744 142.964 115.144ZM120.32 115.144C120.32 116.824 120.992 118.24 122.336 119.392C123.68 120.52 125.744 121.192 128.528 121.408V108.808C125.744 109.024 123.68 109.708 122.336 110.86C120.992 112.012 120.32 113.44 120.32 115.144ZM131.624 121.408C134.408 121.192 136.472 120.52 137.816 119.392C139.16 118.24 139.832 116.824 139.832 115.144C139.832 113.44 139.16 112.012 137.816 110.86C136.472 109.708 134.408 109.024 131.624 108.808V121.408ZM154.564 105.712C157.18 105.712 159.328 106.564 161.008 108.268C162.688 109.948 163.564 112.168 163.636 114.928C163.636 115.336 163.624 115.66 163.6 115.9H148.372C148.54 117.628 149.212 119.02 150.388 120.076C151.588 121.132 153.016 121.66 154.672 121.66C157.024 121.66 158.836 120.832 160.108 119.176L162.16 120.832C161.344 121.984 160.264 122.872 158.92 123.496C157.6 124.096 156.16 124.396 154.6 124.396C152.032 124.396 149.836 123.496 148.012 121.696C146.212 119.872 145.312 117.676 145.312 115.108C145.312 112.444 146.188 110.212 147.94 108.412C149.716 106.612 151.924 105.712 154.564 105.712ZM154.564 108.412C153.076 108.412 151.78 108.856 150.676 109.744C149.596 110.632 148.888 111.796 148.552 113.236H160.54C160.18 111.796 159.472 110.632 158.416 109.744C157.384 108.856 156.1 108.412 154.564 108.412ZM175.347 124.432C172.707 124.432 170.487 123.532 168.687 121.732C166.887 119.908 165.987 117.688 165.987 115.072C165.987 112.456 166.887 110.236 168.687 108.412C170.487 106.588 172.707 105.676 175.347 105.676C176.883 105.676 178.323 106.036 179.667 106.756C181.011 107.452 182.115 108.4 182.979 109.6L180.315 111.544C179.163 109.744 177.507 108.82 175.347 108.772C173.595 108.772 172.119 109.384 170.919 110.608C169.743 111.832 169.155 113.332 169.155 115.108C169.155 116.884 169.743 118.372 170.919 119.572C172.119 120.772 173.595 121.384 175.347 121.408C176.379 121.408 177.339 121.156 178.227 120.652C179.139 120.148 179.859 119.476 180.387 118.636L182.979 120.544C182.115 121.744 181.011 122.692 179.667 123.388C178.323 124.084 176.883 124.432 175.347 124.432ZM201.76 106.18V108.988H194.992V124H191.788V108.988H185.02V106.18H201.76ZM218.182 106.18H221.242V124H218.182V110.608L207.634 124H204.574V106.18H207.634V119.572L218.182 106.18ZM225.454 124V106.18H234.49C236.362 106.18 237.802 106.612 238.81 107.476C239.842 108.34 240.358 109.492 240.358 110.932C240.358 112.828 239.518 114.088 237.838 114.712C239.83 115.384 240.826 116.8 240.826 118.96C240.826 120.472 240.286 121.696 239.206 122.632C238.15 123.544 236.602 124 234.562 124H225.454ZM228.694 113.416H233.734C234.886 113.416 235.75 113.224 236.326 112.84C236.902 112.456 237.19 111.82 237.19 110.932C237.19 109.588 236.038 108.916 233.734 108.916H228.694V113.416ZM228.694 121.264H233.806C235.15 121.264 236.11 121.096 236.686 120.76C237.286 120.4 237.586 119.776 237.586 118.888C237.586 117.928 237.286 117.232 236.686 116.8C236.086 116.368 235.126 116.152 233.806 116.152H228.694V121.264ZM251.544 124.252C249.12 124.252 247.08 123.376 245.424 121.624C243.792 119.848 242.976 117.676 242.976 115.108C242.976 112.516 243.792 110.344 245.424 108.592C247.08 106.816 249.12 105.928 251.544 105.928C254.424 105.928 256.716 106.9 258.42 108.844V106.18H261.66V124H258.42V121.372C256.668 123.292 254.376 124.252 251.544 124.252ZM247.944 119.608C249.12 120.808 250.572 121.408 252.3 121.408C254.028 121.408 255.48 120.808 256.656 119.608C257.832 118.384 258.42 116.884 258.42 115.108C258.42 113.332 257.832 111.832 256.656 110.608C255.48 109.384 254.028 108.772 252.3 108.772C250.572 108.772 249.12 109.384 247.944 110.608C246.768 111.832 246.18 113.332 246.18 115.108C246.18 116.884 246.768 118.384 247.944 119.608ZM265.63 124.036C265.102 124.036 264.694 124.024 264.406 124V121.3C265.774 121.396 266.722 121.096 267.25 120.4C267.802 119.704 268.078 118.408 268.078 116.512V106.18H282.622V124H279.418V108.952H271.246V116.944C271.246 119.392 270.79 121.192 269.878 122.344C268.99 123.472 267.574 124.036 265.63 124.036ZM286.837 124V106.18H290.077V112.804H295.765C297.661 112.804 299.149 113.32 300.229 114.352C301.309 115.384 301.849 116.74 301.849 118.42C301.849 120.052 301.309 121.396 300.229 122.452C299.149 123.484 297.661 124 295.765 124H286.837ZM290.077 121.192H294.865C297.361 121.192 298.609 120.268 298.609 118.42C298.609 116.548 297.361 115.612 294.865 115.612H290.077V121.192Z" fill="white"/>
</svg>
