<svg width="396" height="577" viewBox="0 0 396 577" fill="none" xmlns="http://www.w3.org/2000/svg">
<ellipse cx="10.3923" cy="60.589" rx="10.3923" ry="10.4464" fill="#0092FF"/>
<rect x="13.9897" width="166.01" height="53" fill="#0092FF"/>
<path d="M35.692 38.036C35.164 38.036 34.756 38.024 34.468 38V35.3C35.836 35.396 36.784 35.096 37.312 34.4C37.864 33.704 38.14 32.408 38.14 30.512V20.18H52.684V38H49.48V22.952H41.308V30.944C41.308 33.392 40.852 35.192 39.94 36.344C39.052 37.472 37.636 38.036 35.692 38.036ZM65.2517 19.712C67.8677 19.712 70.0157 20.564 71.6957 22.268C73.3757 23.948 74.2517 26.168 74.3237 28.928C74.3237 29.336 74.3117 29.66 74.2877 29.9H59.0597C59.2277 31.628 59.8997 33.02 61.0757 34.076C62.2757 35.132 63.7037 35.66 65.3597 35.66C67.7117 35.66 69.5237 34.832 70.7957 33.176L72.8477 34.832C72.0317 35.984 70.9517 36.872 69.6077 37.496C68.2877 38.096 66.8477 38.396 65.2877 38.396C62.7197 38.396 60.5237 37.496 58.6997 35.696C56.8997 33.872 55.9997 31.676 55.9997 29.108C55.9997 26.444 56.8757 24.212 58.6277 22.412C60.4037 20.612 62.6117 19.712 65.2517 19.712ZM65.2517 22.412C63.7637 22.412 62.4677 22.856 61.3637 23.744C60.2837 24.632 59.5757 25.796 59.2397 27.236H71.2277C70.8677 25.796 70.1597 24.632 69.1037 23.744C68.0717 22.856 66.7877 22.412 65.2517 22.412ZM77.5038 38V20.18H80.7438V27.452H84.1638L90.6798 20.18H94.8558L86.7918 28.856L94.8558 38H90.7518L84.1638 30.224H80.7438V38H77.5038ZM115.071 43.76V38H97.6834V20.18H100.887V35.264H110.967V20.18H114.135V35.264H118.059V43.76H115.071ZM134.952 20.18H138.012V38H134.952V24.608L124.404 38H121.344V20.18H124.404V33.572L134.952 20.18ZM148.224 20.18H156.864V38H153.624V31.196H149.7L145.344 38H141.6L146.244 31.016C144.78 30.704 143.64 30.08 142.824 29.144C142.032 28.184 141.636 27.032 141.636 25.688C141.636 24.056 142.212 22.736 143.364 21.728C144.516 20.696 146.136 20.18 148.224 20.18ZM153.624 28.172V23.204H148.872C147.6 23.204 146.616 23.42 145.92 23.852C145.224 24.284 144.876 24.908 144.876 25.724C144.876 27.356 146.208 28.172 148.872 28.172H153.624Z" fill="white"/>
<ellipse cx="11.1429" cy="351.589" rx="11.1429" ry="10.4464" fill="#FF8D00"/>
<rect x="15" y="291" width="121" height="53" fill="#FF8D00"/>
<path d="M32.116 329V326.3L40.36 318.848C41.272 318.032 41.968 317.396 42.448 316.94C42.928 316.46 43.432 315.884 43.96 315.212C44.512 314.54 44.896 313.88 45.112 313.232C45.352 312.584 45.472 311.9 45.472 311.18C45.472 309.716 45.04 308.552 44.176 307.688C43.336 306.824 42.208 306.392 40.792 306.392C39.448 306.392 38.308 306.8 37.372 307.616C36.46 308.432 35.92 309.488 35.752 310.784L32.476 310.352C32.788 308.216 33.712 306.5 35.248 305.204C36.784 303.908 38.656 303.26 40.864 303.26C43.192 303.26 45.076 303.944 46.516 305.312C47.98 306.68 48.712 308.552 48.712 310.928C48.712 312.752 48.208 314.396 47.2 315.86C46.192 317.324 44.788 318.848 42.988 320.432L36.94 326.048H49.144V329H32.116ZM66.7812 327.2C65.1012 328.76 62.9772 329.54 60.4092 329.54C57.8412 329.54 55.7292 328.748 54.0732 327.164C52.4412 325.58 51.6252 323.516 51.6252 320.972C51.6252 318.38 52.4772 315.428 54.1812 312.116C55.8852 308.78 57.8172 306.008 59.9772 303.8H63.6852C62.2692 305.216 60.8532 307.004 59.4372 309.164C58.0452 311.3 56.9652 313.364 56.1972 315.356C57.3972 314.132 59.0052 313.496 61.0212 313.448C63.3732 313.448 65.3412 314.168 66.9252 315.608C68.5092 317.024 69.3012 318.872 69.3012 321.152C69.3012 323.624 68.4612 325.64 66.7812 327.2ZM56.4852 324.968C57.5412 325.976 58.8612 326.48 60.4452 326.48C62.0292 326.48 63.3492 325.988 64.4052 325.004C65.4852 323.996 66.0252 322.712 66.0252 321.152C66.0252 319.616 65.4852 318.368 64.4052 317.408C63.3492 316.448 62.0292 315.968 60.4452 315.968C58.8612 315.968 57.5412 316.448 56.4852 317.408C55.4292 318.368 54.9012 319.616 54.9012 321.152C54.9012 322.688 55.4292 323.96 56.4852 324.968ZM74.8407 328.712C74.4327 329.096 73.9527 329.288 73.4007 329.288C72.8487 329.288 72.3687 329.096 71.9607 328.712C71.5767 328.304 71.3847 327.812 71.3847 327.236C71.3847 326.708 71.5767 326.252 71.9607 325.868C72.3687 325.484 72.8487 325.292 73.4007 325.292C73.9527 325.292 74.4327 325.484 74.8407 325.868C75.2487 326.252 75.4527 326.708 75.4527 327.236C75.4527 327.812 75.2487 328.304 74.8407 328.712ZM87.7233 329C84.7473 329 82.3953 327.848 80.6673 325.544C78.9393 323.24 78.0753 320.192 78.0753 316.4C78.0753 312.608 78.9393 309.56 80.6673 307.256C82.3953 304.952 84.7473 303.8 87.7233 303.8C90.6753 303.8 93.0153 304.952 94.7433 307.256C96.4713 309.56 97.3353 312.608 97.3353 316.4C97.3353 320.192 96.4713 323.24 94.7433 325.544C93.0153 327.848 90.6753 329 87.7233 329ZM87.7233 325.76C89.7153 325.76 91.2513 324.92 92.3313 323.24C93.4353 321.536 93.9873 319.256 93.9873 316.4C93.9873 313.544 93.4353 311.276 92.3313 309.596C91.2513 307.892 89.7153 307.04 87.7233 307.04C85.7313 307.04 84.1833 307.892 83.0793 309.596C81.9753 311.276 81.4233 313.544 81.4233 316.4C81.4233 319.256 81.9633 321.536 83.0433 323.24C84.1473 324.92 85.7073 325.76 87.7233 325.76ZM108.682 329.54C106.498 329.54 104.578 328.916 102.922 327.668C101.29 326.396 100.282 324.776 99.8981 322.808L103.138 321.908C103.306 323.276 103.906 324.38 104.938 325.22C105.97 326.06 107.206 326.48 108.646 326.48C110.254 326.48 111.574 325.976 112.606 324.968C113.662 323.96 114.19 322.676 114.19 321.116C114.19 319.556 113.674 318.296 112.642 317.336C111.634 316.352 110.386 315.86 108.898 315.86C106.714 315.86 105.082 316.652 104.002 318.236L101.086 316.832L101.878 303.8H115.522V306.824H104.65L104.218 314.636C105.514 313.58 107.206 313.052 109.294 313.052C111.55 313.052 113.47 313.796 115.054 315.284C116.662 316.748 117.466 318.68 117.466 321.08C117.466 323.6 116.638 325.64 114.982 327.2C113.35 328.76 111.25 329.54 108.682 329.54Z" fill="white"/>
<ellipse cx="183.402" cy="556.589" rx="11.402" ry="10.4464" fill="#FF8D00"/>
<rect x="187.349" y="496" width="204.651" height="53" fill="#FF8D00"/>
<path d="M207.536 534V514.056C206.672 515.04 205.364 515.508 203.612 515.46V512.436C206.108 512.436 207.416 511.224 207.536 508.8H210.92V534H207.536ZM230.245 532.416C228.613 533.808 226.489 534.504 223.873 534.504C221.257 534.504 219.121 533.808 217.465 532.416C215.833 531.024 215.017 529.26 215.017 527.124C215.017 525.516 215.473 524.16 216.385 523.056C217.297 521.952 218.533 521.22 220.093 520.86C218.773 520.476 217.729 519.792 216.961 518.808C216.193 517.824 215.809 516.636 215.809 515.244C215.809 513.252 216.553 511.596 218.041 510.276C219.529 508.932 221.473 508.26 223.873 508.26C226.273 508.26 228.217 508.932 229.705 510.276C231.193 511.596 231.937 513.252 231.937 515.244C231.937 516.636 231.553 517.824 230.785 518.808C230.017 519.792 228.973 520.476 227.653 520.86C229.213 521.22 230.449 521.952 231.361 523.056C232.273 524.16 232.729 525.516 232.729 527.124C232.729 529.26 231.901 531.024 230.245 532.416ZM220.381 518.592C221.245 519.336 222.409 519.708 223.873 519.708C225.337 519.708 226.489 519.336 227.329 518.592C228.193 517.848 228.625 516.852 228.625 515.604C228.625 514.308 228.181 513.264 227.293 512.472C226.429 511.656 225.289 511.248 223.873 511.248C222.457 511.248 221.305 511.656 220.417 512.472C219.553 513.264 219.121 514.308 219.121 515.604C219.121 516.852 219.541 517.848 220.381 518.592ZM223.873 531.48C225.457 531.48 226.741 531.06 227.725 530.22C228.733 529.356 229.237 528.216 229.237 526.8C229.237 525.408 228.757 524.316 227.797 523.524C226.861 522.732 225.553 522.336 223.873 522.336C222.193 522.336 220.873 522.732 219.913 523.524C218.977 524.316 218.509 525.408 218.509 526.8C218.509 528.216 219.013 529.356 220.021 530.22C221.029 531.06 222.313 531.48 223.873 531.48ZM238.258 518.736C237.898 519.096 237.454 519.276 236.926 519.276C236.398 519.276 235.942 519.096 235.558 518.736C235.198 518.352 235.018 517.884 235.018 517.332C235.018 516.852 235.198 516.432 235.558 516.072C235.942 515.712 236.398 515.532 236.926 515.532C237.454 515.532 237.898 515.712 238.258 516.072C238.642 516.432 238.834 516.852 238.834 517.332C238.834 517.884 238.642 518.352 238.258 518.736ZM238.258 533.568C237.898 533.928 237.454 534.108 236.926 534.108C236.398 534.108 235.942 533.928 235.558 533.568C235.198 533.184 235.018 532.728 235.018 532.2C235.018 531.72 235.198 531.3 235.558 530.94C235.942 530.556 236.398 530.364 236.926 530.364C237.454 530.364 237.898 530.556 238.258 530.94C238.642 531.3 238.834 531.72 238.834 532.2C238.834 532.728 238.642 533.184 238.258 533.568ZM251.11 534C248.134 534 245.782 532.848 244.054 530.544C242.326 528.24 241.462 525.192 241.462 521.4C241.462 517.608 242.326 514.56 244.054 512.256C245.782 509.952 248.134 508.8 251.11 508.8C254.062 508.8 256.402 509.952 258.13 512.256C259.858 514.56 260.722 517.608 260.722 521.4C260.722 525.192 259.858 528.24 258.13 530.544C256.402 532.848 254.062 534 251.11 534ZM251.11 530.76C253.102 530.76 254.638 529.92 255.718 528.24C256.822 526.536 257.374 524.256 257.374 521.4C257.374 518.544 256.822 516.276 255.718 514.596C254.638 512.892 253.102 512.04 251.11 512.04C249.118 512.04 247.57 512.892 246.466 514.596C245.362 516.276 244.81 518.544 244.81 521.4C244.81 524.256 245.35 526.536 246.43 528.24C247.534 529.92 249.094 530.76 251.11 530.76ZM273.259 534C270.283 534 267.931 532.848 266.203 530.544C264.475 528.24 263.611 525.192 263.611 521.4C263.611 517.608 264.475 514.56 266.203 512.256C267.931 509.952 270.283 508.8 273.259 508.8C276.211 508.8 278.551 509.952 280.279 512.256C282.007 514.56 282.871 517.608 282.871 521.4C282.871 525.192 282.007 528.24 280.279 530.544C278.551 532.848 276.211 534 273.259 534ZM273.259 530.76C275.251 530.76 276.787 529.92 277.867 528.24C278.971 526.536 279.523 524.256 279.523 521.4C279.523 518.544 278.971 516.276 277.867 514.596C276.787 512.892 275.251 512.04 273.259 512.04C271.267 512.04 269.719 512.892 268.615 514.596C267.511 516.276 266.959 518.544 266.959 521.4C266.959 524.256 267.499 526.536 268.579 528.24C269.683 529.92 271.243 530.76 273.259 530.76ZM285.502 525.684V522.696H298.75V525.684H285.502ZM304.356 534V514.056C303.492 515.04 302.184 515.508 300.432 515.46V512.436C302.928 512.436 304.236 511.224 304.356 508.8H307.74V534H304.356ZM317.345 534C320.969 530.28 323.453 526.644 324.797 523.092C323.573 524.388 321.965 525.036 319.973 525.036C317.645 525.06 315.689 524.34 314.105 522.876C312.521 521.388 311.729 519.492 311.729 517.188C311.729 514.74 312.569 512.736 314.249 511.176C315.953 509.592 318.077 508.8 320.621 508.8C323.189 508.8 325.301 509.592 326.957 511.176C328.613 512.76 329.441 514.824 329.441 517.368C329.441 520.032 328.613 522.888 326.957 525.936C325.301 528.96 323.345 531.648 321.089 534H317.345ZM316.625 520.932C317.705 521.892 319.037 522.372 320.621 522.372C322.205 522.372 323.525 521.892 324.581 520.932C325.637 519.972 326.165 518.724 326.165 517.188C326.165 515.652 325.637 514.38 324.581 513.372C323.525 512.364 322.205 511.86 320.621 511.86C319.037 511.86 317.705 512.364 316.625 513.372C315.569 514.356 315.041 515.628 315.041 517.188C315.041 518.724 315.569 519.972 316.625 520.932ZM334.937 518.736C334.577 519.096 334.133 519.276 333.605 519.276C333.077 519.276 332.621 519.096 332.237 518.736C331.877 518.352 331.697 517.884 331.697 517.332C331.697 516.852 331.877 516.432 332.237 516.072C332.621 515.712 333.077 515.532 333.605 515.532C334.133 515.532 334.577 515.712 334.937 516.072C335.321 516.432 335.513 516.852 335.513 517.332C335.513 517.884 335.321 518.352 334.937 518.736ZM334.937 533.568C334.577 533.928 334.133 534.108 333.605 534.108C333.077 534.108 332.621 533.928 332.237 533.568C331.877 533.184 331.697 532.728 331.697 532.2C331.697 531.72 331.877 531.3 332.237 530.94C332.621 530.556 333.077 530.364 333.605 530.364C334.133 530.364 334.577 530.556 334.937 530.94C335.321 531.3 335.513 531.72 335.513 532.2C335.513 532.728 335.321 533.184 334.937 533.568ZM347.79 534C344.814 534 342.462 532.848 340.734 530.544C339.006 528.24 338.142 525.192 338.142 521.4C338.142 517.608 339.006 514.56 340.734 512.256C342.462 509.952 344.814 508.8 347.79 508.8C350.742 508.8 353.082 509.952 354.81 512.256C356.538 514.56 357.402 517.608 357.402 521.4C357.402 525.192 356.538 528.24 354.81 530.544C353.082 532.848 350.742 534 347.79 534ZM347.79 530.76C349.782 530.76 351.318 529.92 352.398 528.24C353.502 526.536 354.054 524.256 354.054 521.4C354.054 518.544 353.502 516.276 352.398 514.596C351.318 512.892 349.782 512.04 347.79 512.04C345.798 512.04 344.25 512.892 343.146 514.596C342.042 516.276 341.49 518.544 341.49 521.4C341.49 524.256 342.03 526.536 343.11 528.24C344.214 529.92 345.774 530.76 347.79 530.76ZM369.938 534C366.962 534 364.61 532.848 362.882 530.544C361.154 528.24 360.29 525.192 360.29 521.4C360.29 517.608 361.154 514.56 362.882 512.256C364.61 509.952 366.962 508.8 369.938 508.8C372.89 508.8 375.23 509.952 376.958 512.256C378.686 514.56 379.55 517.608 379.55 521.4C379.55 525.192 378.686 528.24 376.958 530.544C375.23 532.848 372.89 534 369.938 534ZM369.938 530.76C371.93 530.76 373.466 529.92 374.546 528.24C375.65 526.536 376.202 524.256 376.202 521.4C376.202 518.544 375.65 516.276 374.546 514.596C373.466 512.892 371.93 512.04 369.938 512.04C367.946 512.04 366.398 512.892 365.294 514.596C364.19 516.276 363.638 518.544 363.638 521.4C363.638 524.256 364.178 526.536 365.258 528.24C366.362 529.92 367.922 530.76 369.938 530.76Z" fill="white"/>
<ellipse cx="96.0657" cy="146.589" rx="10.0657" ry="10.4464" fill="#0092FF"/>
<rect x="98.6467" y="86" width="258.353" height="53" fill="#0092FF"/>
<path d="M133.352 121.696C131.528 123.52 129.308 124.432 126.692 124.432C124.076 124.432 121.856 123.52 120.032 121.696C118.208 119.872 117.296 117.664 117.296 115.072C117.296 112.456 118.208 110.236 120.032 108.412C121.856 106.588 124.076 105.676 126.692 105.676C129.308 105.676 131.528 106.588 133.352 108.412C135.2 110.236 136.124 112.456 136.124 115.072C136.124 117.664 135.2 119.872 133.352 121.696ZM126.692 121.516C128.444 121.54 129.92 120.94 131.12 119.716C132.344 118.468 132.956 116.932 132.956 115.108C132.956 113.284 132.356 111.748 131.156 110.5C129.956 109.252 128.468 108.628 126.692 108.628C124.916 108.628 123.428 109.252 122.228 110.5C121.052 111.748 120.464 113.284 120.464 115.108C120.464 116.932 121.064 118.468 122.264 119.716C123.464 120.94 124.94 121.54 126.692 121.516ZM148.146 124V106.18H157.182C159.054 106.18 160.494 106.612 161.502 107.476C162.534 108.34 163.05 109.492 163.05 110.932C163.05 112.828 162.21 114.088 160.53 114.712C162.522 115.384 163.518 116.8 163.518 118.96C163.518 120.472 162.978 121.696 161.898 122.632C160.842 123.544 159.294 124 157.254 124H148.146ZM151.386 113.416H156.426C157.578 113.416 158.442 113.224 159.018 112.84C159.594 112.456 159.882 111.82 159.882 110.932C159.882 109.588 158.73 108.916 156.426 108.916H151.386V113.416ZM151.386 121.264H156.498C157.842 121.264 158.802 121.096 159.378 120.76C159.978 120.4 160.278 119.776 160.278 118.888C160.278 117.928 159.978 117.232 159.378 116.8C158.778 116.368 157.818 116.152 156.498 116.152H151.386V121.264ZM175.025 105.712C177.641 105.712 179.789 106.564 181.469 108.268C183.149 109.948 184.025 112.168 184.097 114.928C184.097 115.336 184.085 115.66 184.061 115.9H168.833C169.001 117.628 169.673 119.02 170.849 120.076C172.049 121.132 173.477 121.66 175.133 121.66C177.485 121.66 179.297 120.832 180.569 119.176L182.621 120.832C181.805 121.984 180.725 122.872 179.381 123.496C178.061 124.096 176.621 124.396 175.061 124.396C172.493 124.396 170.297 123.496 168.473 121.696C166.673 119.872 165.773 117.676 165.773 115.108C165.773 112.444 166.649 110.212 168.401 108.412C170.177 106.612 172.385 105.712 175.025 105.712ZM175.025 108.412C173.537 108.412 172.241 108.856 171.137 109.744C170.057 110.632 169.349 111.796 169.013 113.236H181.001C180.641 111.796 179.933 110.632 178.877 109.744C177.845 108.856 176.561 108.412 175.025 108.412ZM186.915 124.036C186.387 124.036 185.979 124.024 185.691 124V121.3C187.059 121.396 188.007 121.096 188.535 120.4C189.087 119.704 189.363 118.408 189.363 116.512V106.18H203.907V124H200.703V108.952H192.531V116.944C192.531 119.392 192.075 121.192 191.163 122.344C190.275 123.472 188.859 124.036 186.915 124.036ZM221.838 106.18H224.898V124H221.838V110.608L211.29 124H208.23V106.18H211.29V119.572L221.838 106.18ZM229.219 124V106.18H232.459V113.452H235.879L242.395 106.18H246.571L238.507 114.856L246.571 124H242.467L235.879 116.224H232.459V124H229.219ZM256.255 124.252C253.831 124.252 251.791 123.376 250.135 121.624C248.503 119.848 247.687 117.676 247.687 115.108C247.687 112.516 248.503 110.344 250.135 108.592C251.791 106.816 253.831 105.928 256.255 105.928C259.135 105.928 261.427 106.9 263.131 108.844V106.18H266.371V124H263.131V121.372C261.379 123.292 259.087 124.252 256.255 124.252ZM252.655 119.608C253.831 120.808 255.283 121.408 257.011 121.408C258.739 121.408 260.191 120.808 261.367 119.608C262.543 118.384 263.131 116.884 263.131 115.108C263.131 113.332 262.543 111.832 261.367 110.608C260.191 109.384 258.739 108.772 257.011 108.772C255.283 108.772 253.831 109.384 252.655 110.608C251.479 111.832 250.891 113.332 250.891 115.108C250.891 116.884 251.479 118.384 252.655 119.608ZM284.203 106.18H287.407V124H284.203V116.476H273.907V124H270.703V106.18H273.907V113.704H284.203V106.18ZM299.286 124.252C296.862 124.252 294.822 123.376 293.166 121.624C291.534 119.848 290.718 117.676 290.718 115.108C290.718 112.516 291.534 110.344 293.166 108.592C294.822 106.816 296.862 105.928 299.286 105.928C302.166 105.928 304.458 106.9 306.162 108.844V106.18H309.402V124H306.162V121.372C304.41 123.292 302.118 124.252 299.286 124.252ZM295.686 119.608C296.862 120.808 298.314 121.408 300.042 121.408C301.77 121.408 303.222 120.808 304.398 119.608C305.574 118.384 306.162 116.884 306.162 115.108C306.162 113.332 305.574 111.832 304.398 110.608C303.222 109.384 301.77 108.772 300.042 108.772C298.314 108.772 296.862 109.384 295.686 110.608C294.51 111.832 293.922 113.332 293.922 115.108C293.922 116.884 294.51 118.384 295.686 119.608ZM312.255 124L319.059 114.964L312.255 106.18H316.143L321.111 112.804L326.007 106.18H329.895L323.127 114.964L329.895 124H326.043L321.111 117.088L316.143 124H312.255Z" fill="white"/>
</svg>
