<svg width="396" height="577" viewBox="0 0 396 577" fill="none" xmlns="http://www.w3.org/2000/svg">
<ellipse cx="11.7202" cy="60.589" rx="11.7202" ry="10.4464" fill="#0092FF"/>
<rect x="15.7771" width="187.223" height="53" fill="#0092FF"/>
<path d="M33.052 38V20.18H42.088C43.96 20.18 45.4 20.612 46.408 21.476C47.44 22.34 47.956 23.492 47.956 24.932C47.956 26.828 47.116 28.088 45.436 28.712C47.428 29.384 48.424 30.8 48.424 32.96C48.424 34.472 47.884 35.696 46.804 36.632C45.748 37.544 44.2 38 42.16 38H33.052ZM36.292 27.416H41.332C42.484 27.416 43.348 27.224 43.924 26.84C44.5 26.456 44.788 25.82 44.788 24.932C44.788 23.588 43.636 22.916 41.332 22.916H36.292V27.416ZM36.292 35.264H41.404C42.748 35.264 43.708 35.096 44.284 34.76C44.884 34.4 45.184 33.776 45.184 32.888C45.184 31.928 44.884 31.232 44.284 30.8C43.684 30.368 42.724 30.152 41.404 30.152H36.292V35.264ZM66.8793 35.696C65.0553 37.52 62.8353 38.432 60.2193 38.432C57.6033 38.432 55.3833 37.52 53.5593 35.696C51.7353 33.872 50.8233 31.664 50.8233 29.072C50.8233 26.456 51.7353 24.236 53.5593 22.412C55.3833 20.588 57.6033 19.676 60.2193 19.676C62.8353 19.676 65.0553 20.588 66.8793 22.412C68.7273 24.236 69.6513 26.456 69.6513 29.072C69.6513 31.664 68.7273 33.872 66.8793 35.696ZM60.2193 35.516C61.9713 35.54 63.4473 34.94 64.6473 33.716C65.8713 32.468 66.4833 30.932 66.4833 29.108C66.4833 27.284 65.8833 25.748 64.6833 24.5C63.4833 23.252 61.9953 22.628 60.2193 22.628C58.4433 22.628 56.9553 23.252 55.7553 24.5C54.5793 25.748 53.9913 27.284 53.9913 29.108C53.9913 30.932 54.5913 32.468 55.7913 33.716C56.9913 34.94 58.4673 35.54 60.2193 35.516ZM73.203 47V20.18H76.443V22.844C78.147 20.9 80.439 19.928 83.319 19.928C85.743 19.928 87.771 20.816 89.403 22.592C91.059 24.344 91.887 26.516 91.887 29.108C91.887 31.676 91.059 33.848 89.403 35.624C87.771 37.376 85.743 38.252 83.319 38.252C80.487 38.252 78.195 37.292 76.443 35.372V47H73.203ZM78.207 33.608C79.383 34.808 80.835 35.408 82.563 35.408C84.291 35.408 85.731 34.808 86.883 33.608C88.035 32.384 88.611 30.884 88.611 29.108C88.611 27.308 88.035 25.808 86.883 24.608C85.731 23.384 84.291 22.772 82.563 22.772C80.835 22.772 79.383 23.384 78.207 24.608C77.031 25.832 76.443 27.332 76.443 29.108C76.443 30.884 77.031 32.384 78.207 33.608ZM95.3163 38V20.18H98.5563V27.452H101.976L108.492 20.18H112.668L104.604 28.856L112.668 38H108.564L101.976 30.224H98.5563V38H95.3163ZM115.496 38V20.18H118.7V35.264H127.448V20.18H130.616V35.264H139.364V20.18H142.568V38H115.496ZM162.082 35.696C160.258 37.52 158.038 38.432 155.422 38.432C152.806 38.432 150.586 37.52 148.762 35.696C146.938 33.872 146.026 31.664 146.026 29.072C146.026 26.456 146.938 24.236 148.762 22.412C150.586 20.588 152.806 19.676 155.422 19.676C158.038 19.676 160.258 20.588 162.082 22.412C163.93 24.236 164.854 26.456 164.854 29.072C164.854 31.664 163.93 33.872 162.082 35.696ZM155.422 35.516C157.174 35.54 158.65 34.94 159.85 33.716C161.074 32.468 161.686 30.932 161.686 29.108C161.686 27.284 161.086 25.748 159.886 24.5C158.686 23.252 157.198 22.628 155.422 22.628C153.646 22.628 152.158 23.252 150.958 24.5C149.782 25.748 149.194 27.284 149.194 29.108C149.194 30.932 149.794 32.468 150.994 33.716C152.194 34.94 153.67 35.54 155.422 35.516ZM185.182 20.18V38H181.942V22.916H171.646V38H168.406V20.18H185.182Z" fill="white"/>
<ellipse cx="11.1429" cy="351.589" rx="11.1429" ry="10.4464" fill="#FF8D00"/>
<rect x="15" y="291" width="121" height="53" fill="#FF8D00"/>
<path d="M32.116 329V326.3L40.36 318.848C41.272 318.032 41.968 317.396 42.448 316.94C42.928 316.46 43.432 315.884 43.96 315.212C44.512 314.54 44.896 313.88 45.112 313.232C45.352 312.584 45.472 311.9 45.472 311.18C45.472 309.716 45.04 308.552 44.176 307.688C43.336 306.824 42.208 306.392 40.792 306.392C39.448 306.392 38.308 306.8 37.372 307.616C36.46 308.432 35.92 309.488 35.752 310.784L32.476 310.352C32.788 308.216 33.712 306.5 35.248 305.204C36.784 303.908 38.656 303.26 40.864 303.26C43.192 303.26 45.076 303.944 46.516 305.312C47.98 306.68 48.712 308.552 48.712 310.928C48.712 312.752 48.208 314.396 47.2 315.86C46.192 317.324 44.788 318.848 42.988 320.432L36.94 326.048H49.144V329H32.116ZM66.8583 327.416C65.2263 328.808 63.1023 329.504 60.4863 329.504C57.8703 329.504 55.7343 328.808 54.0783 327.416C52.4463 326.024 51.6303 324.26 51.6303 322.124C51.6303 320.516 52.0863 319.16 52.9983 318.056C53.9103 316.952 55.1463 316.22 56.7063 315.86C55.3863 315.476 54.3423 314.792 53.5743 313.808C52.8063 312.824 52.4223 311.636 52.4223 310.244C52.4223 308.252 53.1663 306.596 54.6543 305.276C56.1423 303.932 58.0863 303.26 60.4863 303.26C62.8863 303.26 64.8303 303.932 66.3183 305.276C67.8063 306.596 68.5503 308.252 68.5503 310.244C68.5503 311.636 68.1663 312.824 67.3983 313.808C66.6303 314.792 65.5863 315.476 64.2663 315.86C65.8263 316.22 67.0623 316.952 67.9743 318.056C68.8863 319.16 69.3423 320.516 69.3423 322.124C69.3423 324.26 68.5143 326.024 66.8583 327.416ZM56.9943 313.592C57.8583 314.336 59.0223 314.708 60.4863 314.708C61.9503 314.708 63.1023 314.336 63.9423 313.592C64.8063 312.848 65.2383 311.852 65.2383 310.604C65.2383 309.308 64.7943 308.264 63.9063 307.472C63.0423 306.656 61.9023 306.248 60.4863 306.248C59.0703 306.248 57.9183 306.656 57.0303 307.472C56.1663 308.264 55.7343 309.308 55.7343 310.604C55.7343 311.852 56.1543 312.848 56.9943 313.592ZM60.4863 326.48C62.0703 326.48 63.3543 326.06 64.3383 325.22C65.3463 324.356 65.8503 323.216 65.8503 321.8C65.8503 320.408 65.3703 319.316 64.4103 318.524C63.4743 317.732 62.1663 317.336 60.4863 317.336C58.8063 317.336 57.4863 317.732 56.5263 318.524C55.5903 319.316 55.1223 320.408 55.1223 321.8C55.1223 323.216 55.6263 324.356 56.6343 325.22C57.6423 326.06 58.9263 326.48 60.4863 326.48ZM75.0868 328.712C74.6788 329.096 74.1988 329.288 73.6468 329.288C73.0948 329.288 72.6148 329.096 72.2068 328.712C71.8228 328.304 71.6308 327.812 71.6308 327.236C71.6308 326.708 71.8228 326.252 72.2068 325.868C72.6148 325.484 73.0948 325.292 73.6468 325.292C74.1988 325.292 74.6788 325.484 75.0868 325.868C75.4948 326.252 75.6988 326.708 75.6988 327.236C75.6988 327.812 75.4948 328.304 75.0868 328.712ZM87.9694 329C84.9934 329 82.6414 327.848 80.9134 325.544C79.1854 323.24 78.3214 320.192 78.3214 316.4C78.3214 312.608 79.1854 309.56 80.9134 307.256C82.6414 304.952 84.9934 303.8 87.9694 303.8C90.9214 303.8 93.2614 304.952 94.9894 307.256C96.7174 309.56 97.5814 312.608 97.5814 316.4C97.5814 320.192 96.7174 323.24 94.9894 325.544C93.2614 327.848 90.9214 329 87.9694 329ZM87.9694 325.76C89.9614 325.76 91.4974 324.92 92.5774 323.24C93.6814 321.536 94.2334 319.256 94.2334 316.4C94.2334 313.544 93.6814 311.276 92.5774 309.596C91.4974 307.892 89.9614 307.04 87.9694 307.04C85.9774 307.04 84.4294 307.892 83.3254 309.596C82.2214 311.276 81.6694 313.544 81.6694 316.4C81.6694 319.256 82.2094 321.536 83.2894 323.24C84.3934 324.92 85.9534 325.76 87.9694 325.76ZM108.928 329.54C106.744 329.54 104.824 328.916 103.168 327.668C101.536 326.396 100.528 324.776 100.144 322.808L103.384 321.908C103.552 323.276 104.152 324.38 105.184 325.22C106.216 326.06 107.452 326.48 108.892 326.48C110.5 326.48 111.82 325.976 112.852 324.968C113.908 323.96 114.436 322.676 114.436 321.116C114.436 319.556 113.92 318.296 112.888 317.336C111.88 316.352 110.632 315.86 109.144 315.86C106.96 315.86 105.328 316.652 104.248 318.236L101.332 316.832L102.124 303.8H115.768V306.824H104.896L104.464 314.636C105.76 313.58 107.452 313.052 109.54 313.052C111.796 313.052 113.716 313.796 115.3 315.284C116.908 316.748 117.712 318.68 117.712 321.08C117.712 323.6 116.884 325.64 115.228 327.2C113.596 328.76 111.496 329.54 108.928 329.54Z" fill="white"/>
<ellipse cx="183.402" cy="556.589" rx="11.402" ry="10.4464" fill="#FF8D00"/>
<rect x="187.349" y="496" width="204.651" height="53" fill="#FF8D00"/>
<path d="M207.536 534V514.056C206.672 515.04 205.364 515.508 203.612 515.46V512.436C206.108 512.436 207.416 511.224 207.536 508.8H210.92V534H207.536ZM224.989 534C222.013 534 219.661 532.848 217.933 530.544C216.205 528.24 215.341 525.192 215.341 521.4C215.341 517.608 216.205 514.56 217.933 512.256C219.661 509.952 222.013 508.8 224.989 508.8C227.941 508.8 230.281 509.952 232.009 512.256C233.737 514.56 234.601 517.608 234.601 521.4C234.601 525.192 233.737 528.24 232.009 530.544C230.281 532.848 227.941 534 224.989 534ZM224.989 530.76C226.981 530.76 228.517 529.92 229.597 528.24C230.701 526.536 231.253 524.256 231.253 521.4C231.253 518.544 230.701 516.276 229.597 514.596C228.517 512.892 226.981 512.04 224.989 512.04C222.997 512.04 221.449 512.892 220.345 514.596C219.241 516.276 218.689 518.544 218.689 521.4C218.689 524.256 219.229 526.536 220.309 528.24C221.413 529.92 222.973 530.76 224.989 530.76ZM240.472 518.736C240.112 519.096 239.668 519.276 239.14 519.276C238.612 519.276 238.156 519.096 237.772 518.736C237.412 518.352 237.232 517.884 237.232 517.332C237.232 516.852 237.412 516.432 237.772 516.072C238.156 515.712 238.612 515.532 239.14 515.532C239.668 515.532 240.112 515.712 240.472 516.072C240.856 516.432 241.048 516.852 241.048 517.332C241.048 517.884 240.856 518.352 240.472 518.736ZM240.472 533.568C240.112 533.928 239.668 534.108 239.14 534.108C238.612 534.108 238.156 533.928 237.772 533.568C237.412 533.184 237.232 532.728 237.232 532.2C237.232 531.72 237.412 531.3 237.772 530.94C238.156 530.556 238.612 530.364 239.14 530.364C239.668 530.364 240.112 530.556 240.472 530.94C240.856 531.3 241.048 531.72 241.048 532.2C241.048 532.728 240.856 533.184 240.472 533.568ZM253.325 534C250.349 534 247.997 532.848 246.269 530.544C244.541 528.24 243.677 525.192 243.677 521.4C243.677 517.608 244.541 514.56 246.269 512.256C247.997 509.952 250.349 508.8 253.325 508.8C256.277 508.8 258.617 509.952 260.345 512.256C262.073 514.56 262.937 517.608 262.937 521.4C262.937 525.192 262.073 528.24 260.345 530.544C258.617 532.848 256.277 534 253.325 534ZM253.325 530.76C255.317 530.76 256.853 529.92 257.933 528.24C259.037 526.536 259.589 524.256 259.589 521.4C259.589 518.544 259.037 516.276 257.933 514.596C256.853 512.892 255.317 512.04 253.325 512.04C251.333 512.04 249.785 512.892 248.681 514.596C247.577 516.276 247.025 518.544 247.025 521.4C247.025 524.256 247.565 526.536 248.645 528.24C249.749 529.92 251.309 530.76 253.325 530.76ZM275.473 534C272.497 534 270.145 532.848 268.417 530.544C266.689 528.24 265.825 525.192 265.825 521.4C265.825 517.608 266.689 514.56 268.417 512.256C270.145 509.952 272.497 508.8 275.473 508.8C278.425 508.8 280.765 509.952 282.493 512.256C284.221 514.56 285.085 517.608 285.085 521.4C285.085 525.192 284.221 528.24 282.493 530.544C280.765 532.848 278.425 534 275.473 534ZM275.473 530.76C277.465 530.76 279.001 529.92 280.081 528.24C281.185 526.536 281.737 524.256 281.737 521.4C281.737 518.544 281.185 516.276 280.081 514.596C279.001 512.892 277.465 512.04 275.473 512.04C273.481 512.04 271.933 512.892 270.829 514.596C269.725 516.276 269.173 518.544 269.173 521.4C269.173 524.256 269.713 526.536 270.793 528.24C271.897 529.92 273.457 530.76 275.473 530.76ZM287.717 525.684V522.696H300.965V525.684H287.717ZM306.571 534V514.056C305.707 515.04 304.399 515.508 302.647 515.46V512.436C305.143 512.436 306.451 511.224 306.571 508.8H309.955V534H306.571ZM313.768 534V531.3L322.012 523.848C322.924 523.032 323.62 522.396 324.1 521.94C324.58 521.46 325.084 520.884 325.612 520.212C326.164 519.54 326.548 518.88 326.764 518.232C327.004 517.584 327.124 516.9 327.124 516.18C327.124 514.716 326.692 513.552 325.828 512.688C324.988 511.824 323.86 511.392 322.444 511.392C321.1 511.392 319.96 511.8 319.024 512.616C318.112 513.432 317.572 514.488 317.404 515.784L314.128 515.352C314.44 513.216 315.364 511.5 316.9 510.204C318.436 508.908 320.308 508.26 322.516 508.26C324.844 508.26 326.728 508.944 328.168 510.312C329.632 511.68 330.364 513.552 330.364 515.928C330.364 517.752 329.86 519.396 328.852 520.86C327.844 522.324 326.44 523.848 324.64 525.432L318.592 531.048H330.796V534H313.768ZM336.484 518.736C336.124 519.096 335.68 519.276 335.152 519.276C334.624 519.276 334.168 519.096 333.784 518.736C333.424 518.352 333.244 517.884 333.244 517.332C333.244 516.852 333.424 516.432 333.784 516.072C334.168 515.712 334.624 515.532 335.152 515.532C335.68 515.532 336.124 515.712 336.484 516.072C336.868 516.432 337.06 516.852 337.06 517.332C337.06 517.884 336.868 518.352 336.484 518.736ZM336.484 533.568C336.124 533.928 335.68 534.108 335.152 534.108C334.624 534.108 334.168 533.928 333.784 533.568C333.424 533.184 333.244 532.728 333.244 532.2C333.244 531.72 333.424 531.3 333.784 530.94C334.168 530.556 334.624 530.364 335.152 530.364C335.68 530.364 336.124 530.556 336.484 530.94C336.868 531.3 337.06 531.72 337.06 532.2C337.06 532.728 336.868 533.184 336.484 533.568ZM349.337 534C346.361 534 344.009 532.848 342.281 530.544C340.553 528.24 339.689 525.192 339.689 521.4C339.689 517.608 340.553 514.56 342.281 512.256C344.009 509.952 346.361 508.8 349.337 508.8C352.289 508.8 354.629 509.952 356.357 512.256C358.085 514.56 358.949 517.608 358.949 521.4C358.949 525.192 358.085 528.24 356.357 530.544C354.629 532.848 352.289 534 349.337 534ZM349.337 530.76C351.329 530.76 352.865 529.92 353.945 528.24C355.049 526.536 355.601 524.256 355.601 521.4C355.601 518.544 355.049 516.276 353.945 514.596C352.865 512.892 351.329 512.04 349.337 512.04C347.345 512.04 345.797 512.892 344.693 514.596C343.589 516.276 343.037 518.544 343.037 521.4C343.037 524.256 343.577 526.536 344.657 528.24C345.761 529.92 347.321 530.76 349.337 530.76ZM371.485 534C368.509 534 366.157 532.848 364.429 530.544C362.701 528.24 361.837 525.192 361.837 521.4C361.837 517.608 362.701 514.56 364.429 512.256C366.157 509.952 368.509 508.8 371.485 508.8C374.437 508.8 376.777 509.952 378.505 512.256C380.233 514.56 381.097 517.608 381.097 521.4C381.097 525.192 380.233 528.24 378.505 530.544C376.777 532.848 374.437 534 371.485 534ZM371.485 530.76C373.477 530.76 375.013 529.92 376.093 528.24C377.197 526.536 377.749 524.256 377.749 521.4C377.749 518.544 377.197 516.276 376.093 514.596C375.013 512.892 373.477 512.04 371.485 512.04C369.493 512.04 367.945 512.892 366.841 514.596C365.737 516.276 365.185 518.544 365.185 521.4C365.185 524.256 365.725 526.536 366.805 528.24C367.909 529.92 369.469 530.76 371.485 530.76Z" fill="white"/>
<ellipse cx="96.6971" cy="146.589" rx="10.6971" ry="10.4464" fill="#0092FF"/>
<rect x="99.4399" y="86" width="274.56" height="53" fill="#0092FF"/>
<path d="M136.952 121.264H140.552V129.76H137.564V124H119.744V129.76H116.756V121.264H119.96C120.848 120.112 121.424 118.876 121.688 117.556C121.952 116.236 122.084 114.184 122.084 111.4V106.18H136.952V121.264ZM123.308 121.264H133.856V108.952H125.144V112.48C125.144 114.856 125 116.692 124.712 117.988C124.448 119.26 123.98 120.352 123.308 121.264ZM158.137 121.696C156.313 123.52 154.093 124.432 151.477 124.432C148.861 124.432 146.641 123.52 144.817 121.696C142.993 119.872 142.081 117.664 142.081 115.072C142.081 112.456 142.993 110.236 144.817 108.412C146.641 106.588 148.861 105.676 151.477 105.676C154.093 105.676 156.313 106.588 158.137 108.412C159.985 110.236 160.909 112.456 160.909 115.072C160.909 117.664 159.985 119.872 158.137 121.696ZM151.477 121.516C153.229 121.54 154.705 120.94 155.905 119.716C157.129 118.468 157.741 116.932 157.741 115.108C157.741 113.284 157.141 111.748 155.941 110.5C154.741 109.252 153.253 108.628 151.477 108.628C149.701 108.628 148.213 109.252 147.013 110.5C145.837 111.748 145.249 113.284 145.249 115.108C145.249 116.932 145.849 118.468 147.049 119.716C148.249 120.94 149.725 121.54 151.477 121.516ZM185.197 106.18V124H182.137V110.536L175.945 119.644H173.605L167.485 110.572V124H164.461V106.18H167.917L174.793 116.548L181.705 106.18H185.197ZM198.103 124V106.18H207.139C209.011 106.18 210.451 106.612 211.459 107.476C212.491 108.34 213.007 109.492 213.007 110.932C213.007 112.828 212.167 114.088 210.487 114.712C212.479 115.384 213.475 116.8 213.475 118.96C213.475 120.472 212.935 121.696 211.855 122.632C210.799 123.544 209.251 124 207.211 124H198.103ZM201.343 113.416H206.383C207.535 113.416 208.399 113.224 208.975 112.84C209.551 112.456 209.839 111.82 209.839 110.932C209.839 109.588 208.687 108.916 206.383 108.916H201.343V113.416ZM201.343 121.264H206.455C207.799 121.264 208.759 121.096 209.335 120.76C209.935 120.4 210.235 119.776 210.235 118.888C210.235 117.928 209.935 117.232 209.335 116.8C208.735 116.368 207.775 116.152 206.455 116.152H201.343V121.264ZM224.982 105.712C227.598 105.712 229.746 106.564 231.426 108.268C233.106 109.948 233.982 112.168 234.054 114.928C234.054 115.336 234.042 115.66 234.018 115.9H218.79C218.958 117.628 219.63 119.02 220.806 120.076C222.006 121.132 223.434 121.66 225.09 121.66C227.442 121.66 229.254 120.832 230.526 119.176L232.578 120.832C231.762 121.984 230.682 122.872 229.338 123.496C228.018 124.096 226.578 124.396 225.018 124.396C222.45 124.396 220.254 123.496 218.43 121.696C216.63 119.872 215.73 117.676 215.73 115.108C215.73 112.444 216.606 110.212 218.358 108.412C220.134 106.612 222.342 105.712 224.982 105.712ZM224.982 108.412C223.494 108.412 222.198 108.856 221.094 109.744C220.014 110.632 219.306 111.796 218.97 113.236H230.958C230.598 111.796 229.89 110.632 228.834 109.744C227.802 108.856 226.518 108.412 224.982 108.412ZM236.872 124.036C236.344 124.036 235.936 124.024 235.648 124V121.3C237.016 121.396 237.964 121.096 238.492 120.4C239.044 119.704 239.32 118.408 239.32 116.512V106.18H253.864V124H250.66V108.952H242.488V116.944C242.488 119.392 242.032 121.192 241.12 122.344C240.232 123.472 238.816 124.036 236.872 124.036ZM271.795 106.18H274.855V124H271.795V110.608L261.247 124H258.187V106.18H261.247V119.572L271.795 106.18ZM279.176 124V106.18H282.416V113.452H285.836L292.352 106.18H296.528L288.464 114.856L296.528 124H292.424L285.836 116.224H282.416V124H279.176ZM306.212 124.252C303.788 124.252 301.748 123.376 300.092 121.624C298.46 119.848 297.644 117.676 297.644 115.108C297.644 112.516 298.46 110.344 300.092 108.592C301.748 106.816 303.788 105.928 306.212 105.928C309.092 105.928 311.384 106.9 313.088 108.844V106.18H316.328V124H313.088V121.372C311.336 123.292 309.044 124.252 306.212 124.252ZM302.612 119.608C303.788 120.808 305.24 121.408 306.968 121.408C308.696 121.408 310.148 120.808 311.324 119.608C312.5 118.384 313.088 116.884 313.088 115.108C313.088 113.332 312.5 111.832 311.324 110.608C310.148 109.384 308.696 108.772 306.968 108.772C305.24 108.772 303.788 109.384 302.612 110.608C301.436 111.832 300.848 113.332 300.848 115.108C300.848 116.884 301.436 118.384 302.612 119.608ZM334.16 106.18H337.364V124H334.16V116.476H323.864V124H320.66V106.18H323.864V113.704H334.16V106.18ZM349.243 124.252C346.819 124.252 344.779 123.376 343.123 121.624C341.491 119.848 340.675 117.676 340.675 115.108C340.675 112.516 341.491 110.344 343.123 108.592C344.779 106.816 346.819 105.928 349.243 105.928C352.123 105.928 354.415 106.9 356.119 108.844V106.18H359.359V124H356.119V121.372C354.367 123.292 352.075 124.252 349.243 124.252ZM345.643 119.608C346.819 120.808 348.271 121.408 349.999 121.408C351.727 121.408 353.179 120.808 354.355 119.608C355.531 118.384 356.119 116.884 356.119 115.108C356.119 113.332 355.531 111.832 354.355 110.608C353.179 109.384 351.727 108.772 349.999 108.772C348.271 108.772 346.819 109.384 345.643 110.608C344.467 111.832 343.879 113.332 343.879 115.108C343.879 116.884 344.467 118.384 345.643 119.608Z" fill="white"/>
</svg>
