<svg width="385" height="286" viewBox="0 0 385 286" fill="none" xmlns="http://www.w3.org/2000/svg">
<ellipse cx="11.1429" cy="265.589" rx="11.1429" ry="10.4464" fill="#FF8D00"/>
<rect x="15" y="205" width="121" height="53" fill="#FF8D00"/>
<path d="M37.536 243V223.056C36.672 224.04 35.364 224.508 33.612 224.46V221.436C36.108 221.436 37.416 220.224 37.536 217.8H40.92V243H37.536ZM54.989 243C52.013 243 49.661 241.848 47.933 239.544C46.205 237.24 45.341 234.192 45.341 230.4C45.341 226.608 46.205 223.56 47.933 221.256C49.661 218.952 52.013 217.8 54.989 217.8C57.941 217.8 60.281 218.952 62.009 221.256C63.737 223.56 64.601 226.608 64.601 230.4C64.601 234.192 63.737 237.24 62.009 239.544C60.281 241.848 57.941 243 54.989 243ZM54.989 239.76C56.981 239.76 58.517 238.92 59.597 237.24C60.701 235.536 61.253 233.256 61.253 230.4C61.253 227.544 60.701 225.276 59.597 223.596C58.517 221.892 56.981 221.04 54.989 221.04C52.997 221.04 51.449 221.892 50.345 223.596C49.241 225.276 48.689 227.544 48.689 230.4C48.689 233.256 49.229 235.536 50.309 237.24C51.413 238.92 52.973 239.76 54.989 239.76ZM70.6883 242.712C70.2803 243.096 69.8003 243.288 69.2483 243.288C68.6963 243.288 68.2163 243.096 67.8083 242.712C67.4243 242.304 67.2323 241.812 67.2323 241.236C67.2323 240.708 67.4243 240.252 67.8083 239.868C68.2163 239.484 68.6963 239.292 69.2483 239.292C69.8003 239.292 70.2803 239.484 70.6883 239.868C71.0963 240.252 71.3003 240.708 71.3003 241.236C71.3003 241.812 71.0963 242.304 70.6883 242.712ZM83.571 243C80.595 243 78.243 241.848 76.515 239.544C74.787 237.24 73.923 234.192 73.923 230.4C73.923 226.608 74.787 223.56 76.515 221.256C78.243 218.952 80.595 217.8 83.571 217.8C86.523 217.8 88.863 218.952 90.591 221.256C92.319 223.56 93.183 226.608 93.183 230.4C93.183 234.192 92.319 237.24 90.591 239.544C88.863 241.848 86.523 243 83.571 243ZM83.571 239.76C85.563 239.76 87.099 238.92 88.179 237.24C89.283 235.536 89.835 233.256 89.835 230.4C89.835 227.544 89.283 225.276 88.179 223.596C87.099 221.892 85.563 221.04 83.571 221.04C81.579 221.04 80.031 221.892 78.927 223.596C77.823 225.276 77.271 227.544 77.271 230.4C77.271 233.256 77.811 235.536 78.891 237.24C79.995 238.92 81.555 239.76 83.571 239.76ZM104.53 243.54C102.346 243.54 100.426 242.916 98.7698 241.668C97.1378 240.396 96.1298 238.776 95.7458 236.808L98.9858 235.908C99.1538 237.276 99.7538 238.38 100.786 239.22C101.818 240.06 103.054 240.48 104.494 240.48C106.102 240.48 107.422 239.976 108.454 238.968C109.51 237.96 110.038 236.676 110.038 235.116C110.038 233.556 109.522 232.296 108.49 231.336C107.482 230.352 106.234 229.86 104.746 229.86C102.562 229.86 100.93 230.652 99.8498 232.236L96.9338 230.832L97.7258 217.8H111.37V220.824H100.498L100.066 228.636C101.362 227.58 103.054 227.052 105.142 227.052C107.398 227.052 109.318 227.796 110.902 229.284C112.51 230.748 113.314 232.68 113.314 235.08C113.314 237.6 112.486 239.64 110.83 241.2C109.198 242.76 107.098 243.54 104.53 243.54Z" fill="white"/>
<ellipse cx="97.1429" cy="60.589" rx="11.1429" ry="10.4464" fill="#0092FF"/>
<rect x="100" width="259" height="53" fill="#0092FF"/>
<path d="M126.296 38.432C123.704 38.432 121.52 37.544 119.744 35.768C117.992 33.992 117.116 31.7 117.116 28.892C117.116 26.324 117.416 24.092 118.016 22.196C118.64 20.276 119.384 18.8 120.248 17.768C121.112 16.736 122.168 15.8 123.416 14.96C124.928 13.928 128.312 12.608 133.568 11L134.576 13.34C129.296 14.972 126.032 16.232 124.784 17.12C123.536 18.008 122.528 19.064 121.76 20.288C120.992 21.488 120.44 23.048 120.104 24.968C120.704 23.792 121.604 22.844 122.804 22.124C124.004 21.38 125.384 21.008 126.944 21.008C129.368 21.008 131.36 21.836 132.92 23.492C134.504 25.148 135.296 27.212 135.296 29.684C135.296 32.132 134.432 34.208 132.704 35.912C131 37.592 128.864 38.432 126.296 38.432ZM126.296 35.588C127.952 35.588 129.344 35.012 130.472 33.86C131.624 32.708 132.2 31.316 132.2 29.684C132.2 28.004 131.624 26.588 130.472 25.436C129.344 24.26 127.952 23.672 126.296 23.672C124.664 23.672 123.284 24.26 122.156 25.436C121.028 26.588 120.464 28.004 120.464 29.684C120.464 31.316 121.028 32.708 122.156 33.86C123.284 35.012 124.664 35.588 126.296 35.588ZM146.216 38.252C143.792 38.252 141.752 37.376 140.096 35.624C138.464 33.848 137.648 31.676 137.648 29.108C137.648 26.516 138.464 24.344 140.096 22.592C141.752 20.816 143.792 19.928 146.216 19.928C149.096 19.928 151.388 20.9 153.092 22.844V20.18H156.332V38H153.092V35.372C151.34 37.292 149.048 38.252 146.216 38.252ZM142.616 33.608C143.792 34.808 145.244 35.408 146.972 35.408C148.7 35.408 150.152 34.808 151.328 33.608C152.504 32.384 153.092 30.884 153.092 29.108C153.092 27.332 152.504 25.832 151.328 24.608C150.152 23.384 148.7 22.772 146.972 22.772C145.244 22.772 143.792 23.384 142.616 24.608C141.44 25.832 140.852 27.332 140.852 29.108C140.852 30.884 141.44 32.384 142.616 33.608ZM174.164 20.18H177.368V38H174.164V30.476H163.868V38H160.664V20.18H163.868V27.704H174.164V20.18ZM195.187 20.18H198.391V38H195.187V30.476H184.891V38H181.687V20.18H184.891V27.704H195.187V20.18ZM202.603 38V20.18H205.843V26.804H211.531C213.427 26.804 214.915 27.32 215.995 28.352C217.075 29.384 217.615 30.74 217.615 32.42C217.615 34.052 217.075 35.396 215.995 36.452C214.915 37.484 213.427 38 211.531 38H202.603ZM220.099 38V20.18H223.339V38H220.099ZM205.843 35.192H210.631C213.127 35.192 214.375 34.268 214.375 32.42C214.375 30.548 213.127 29.612 210.631 29.612H205.843V35.192ZM235.918 17.012C234.454 17.012 233.302 16.604 232.462 15.788C231.646 14.972 231.214 13.976 231.166 12.8H232.966C233.038 13.448 233.314 14.036 233.794 14.564C234.274 15.068 234.982 15.32 235.918 15.32C236.878 15.32 237.598 15.068 238.078 14.564C238.558 14.036 238.834 13.448 238.906 12.8H240.706C240.658 13.976 240.214 14.972 239.374 15.788C238.558 16.604 237.406 17.012 235.918 17.012ZM241.174 20.18H244.234V38H241.174V24.608L230.626 38H227.566V20.18H230.626V33.572L241.174 20.18ZM276.03 35.264H279.63V43.76H276.642V38H258.822V43.76H255.834V35.264H259.038C259.926 34.112 260.502 32.876 260.766 31.556C261.03 30.236 261.162 28.184 261.162 25.4V20.18H276.03V35.264ZM262.386 35.264H272.934V22.952H264.222V26.48C264.222 28.856 264.078 30.692 263.79 31.988C263.526 33.26 263.058 34.352 262.386 35.264ZM290.267 19.712C292.883 19.712 295.031 20.564 296.711 22.268C298.391 23.948 299.267 26.168 299.339 28.928C299.339 29.336 299.327 29.66 299.303 29.9H284.075C284.243 31.628 284.915 33.02 286.091 34.076C287.291 35.132 288.719 35.66 290.375 35.66C292.727 35.66 294.539 34.832 295.811 33.176L297.863 34.832C297.047 35.984 295.967 36.872 294.623 37.496C293.303 38.096 291.863 38.396 290.303 38.396C287.735 38.396 285.539 37.496 283.715 35.696C281.915 33.872 281.015 31.676 281.015 29.108C281.015 26.444 281.891 24.212 283.643 22.412C285.419 20.612 287.627 19.712 290.267 19.712ZM290.267 22.412C288.779 22.412 287.483 22.856 286.379 23.744C285.299 24.632 284.591 25.796 284.255 27.236H296.243C295.883 25.796 295.175 24.632 294.119 23.744C293.087 22.856 291.803 22.412 290.267 22.412ZM316.019 20.18H319.223V38H316.019V30.476H305.723V38H302.519V20.18H305.723V27.704H316.019V20.18ZM323.435 38V20.18H326.675V26.804H332.363C334.259 26.804 335.747 27.32 336.827 28.352C337.907 29.384 338.447 30.74 338.447 32.42C338.447 34.052 337.907 35.396 336.827 36.452C335.747 37.484 334.259 38 332.363 38H323.435ZM326.675 35.192H331.463C333.959 35.192 335.207 34.268 335.207 32.42C335.207 30.548 333.959 29.612 331.463 29.612H326.675V35.192Z" fill="white"/>
</svg>
