<svg width="385" height="372" viewBox="0 0 385 372" fill="none" xmlns="http://www.w3.org/2000/svg">
<ellipse cx="11.1429" cy="60.589" rx="11.1429" ry="10.4464" fill="#0092FF"/>
<rect x="15" width="338" height="53" fill="#0092FF"/>
<path d="M46.768 20.18H49.828V38H46.768V24.608L36.22 38H33.16V20.18H36.22V33.572L46.768 20.18ZM67.6483 20.18H70.8523V38H67.6483V30.476H57.3523V38H54.1483V20.18H57.3523V27.704H67.6483V20.18ZM99.9757 29.144C99.9757 31.52 99.0517 33.536 97.2037 35.192C95.3797 36.848 92.5237 37.784 88.6357 38V47H85.5397V38C81.6517 37.784 78.7837 36.848 76.9357 35.192C75.0877 33.536 74.1637 31.52 74.1637 29.144C74.1637 26.744 75.0877 24.704 76.9357 23.024C78.7837 21.344 81.6517 20.396 85.5397 20.18V12.8H88.6357V20.18C92.4997 20.396 95.3557 21.344 97.2037 23.024C99.0517 24.704 99.9757 26.744 99.9757 29.144ZM77.3317 29.144C77.3317 30.824 78.0037 32.24 79.3477 33.392C80.6917 34.52 82.7557 35.192 85.5397 35.408V22.808C82.7557 23.024 80.6917 23.708 79.3477 24.86C78.0037 26.012 77.3317 27.44 77.3317 29.144ZM88.6357 35.408C91.4197 35.192 93.4837 34.52 94.8277 33.392C96.1717 32.24 96.8437 30.824 96.8437 29.144C96.8437 27.44 96.1717 26.012 94.8277 24.86C93.4837 23.708 91.4197 23.024 88.6357 22.808V35.408ZM118.524 35.696C116.7 37.52 114.48 38.432 111.864 38.432C109.248 38.432 107.028 37.52 105.204 35.696C103.38 33.872 102.468 31.664 102.468 29.072C102.468 26.456 103.38 24.236 105.204 22.412C107.028 20.588 109.248 19.676 111.864 19.676C114.48 19.676 116.7 20.588 118.524 22.412C120.372 24.236 121.296 26.456 121.296 29.072C121.296 31.664 120.372 33.872 118.524 35.696ZM111.864 35.516C113.616 35.54 115.092 34.94 116.292 33.716C117.516 32.468 118.128 30.932 118.128 29.108C118.128 27.284 117.528 25.748 116.328 24.5C115.128 23.252 113.64 22.628 111.864 22.628C110.088 22.628 108.6 23.252 107.4 24.5C106.224 25.748 105.636 27.284 105.636 29.108C105.636 30.932 106.236 32.468 107.436 33.716C108.636 34.94 110.112 35.54 111.864 35.516ZM124.848 47V20.18H128.088V22.844C129.792 20.9 132.084 19.928 134.964 19.928C137.388 19.928 139.416 20.816 141.048 22.592C142.704 24.344 143.532 26.516 143.532 29.108C143.532 31.676 142.704 33.848 141.048 35.624C139.416 37.376 137.388 38.252 134.964 38.252C132.132 38.252 129.84 37.292 128.088 35.372V47H124.848ZM129.852 33.608C131.028 34.808 132.48 35.408 134.208 35.408C135.936 35.408 137.376 34.808 138.528 33.608C139.68 32.384 140.256 30.884 140.256 29.108C140.256 27.308 139.68 25.808 138.528 24.608C137.376 23.384 135.936 22.772 134.208 22.772C132.48 22.772 131.028 23.384 129.852 24.608C128.676 25.832 128.088 27.332 128.088 29.108C128.088 30.884 128.676 32.384 129.852 33.608ZM167.697 20.18V38H164.637V24.536L158.445 33.644H156.105L149.985 24.572V38H146.961V20.18H150.417L157.293 30.548L164.205 20.18H167.697ZM179.587 38.252C177.163 38.252 175.123 37.376 173.467 35.624C171.835 33.848 171.019 31.676 171.019 29.108C171.019 26.516 171.835 24.344 173.467 22.592C175.123 20.816 177.163 19.928 179.587 19.928C182.467 19.928 184.759 20.9 186.463 22.844V20.18H189.703V38H186.463V35.372C184.711 37.292 182.419 38.252 179.587 38.252ZM175.987 33.608C177.163 34.808 178.615 35.408 180.343 35.408C182.071 35.408 183.523 34.808 184.699 33.608C185.875 32.384 186.463 30.884 186.463 29.108C186.463 27.332 185.875 25.832 184.699 24.608C183.523 23.384 182.071 22.772 180.343 22.772C178.615 22.772 177.163 23.384 175.987 24.608C174.811 25.832 174.223 27.332 174.223 29.108C174.223 30.884 174.811 32.384 175.987 33.608ZM211.423 43.76V38H194.035V20.18H197.239V35.264H207.319V20.18H210.487V35.264H214.411V43.76H211.423ZM231.303 20.18H234.363V38H231.303V24.608L220.755 38H217.695V20.18H220.755V33.572L231.303 20.18ZM253.875 35.696C252.051 37.52 249.831 38.432 247.215 38.432C244.599 38.432 242.379 37.52 240.555 35.696C238.731 33.872 237.819 31.664 237.819 29.072C237.819 26.456 238.731 24.236 240.555 22.412C242.379 20.588 244.599 19.676 247.215 19.676C249.831 19.676 252.051 20.588 253.875 22.412C255.723 24.236 256.647 26.456 256.647 29.072C256.647 31.664 255.723 33.872 253.875 35.696ZM247.215 35.516C248.967 35.54 250.443 34.94 251.643 33.716C252.867 32.468 253.479 30.932 253.479 29.108C253.479 27.284 252.879 25.748 251.679 24.5C250.479 23.252 248.991 22.628 247.215 22.628C245.439 22.628 243.951 23.252 242.751 24.5C241.575 25.748 240.987 27.284 240.987 29.108C240.987 30.932 241.587 32.468 242.787 33.716C243.987 34.94 245.463 35.54 247.215 35.516ZM273.699 20.18H276.903V38H273.699V30.476H263.403V38H260.199V20.18H263.403V27.704H273.699V20.18ZM294.723 20.18H297.927V38H294.723V30.476H284.427V38H281.223V20.18H284.427V27.704H294.723V20.18ZM309.806 38.252C307.382 38.252 305.342 37.376 303.686 35.624C302.054 33.848 301.238 31.676 301.238 29.108C301.238 26.516 302.054 24.344 303.686 22.592C305.342 20.816 307.382 19.928 309.806 19.928C312.686 19.928 314.978 20.9 316.682 22.844V20.18H319.922V38H316.682V35.372C314.93 37.292 312.638 38.252 309.806 38.252ZM306.206 33.608C307.382 34.808 308.834 35.408 310.562 35.408C312.29 35.408 313.742 34.808 314.918 33.608C316.094 32.384 316.682 30.884 316.682 29.108C316.682 27.332 316.094 25.832 314.918 24.608C313.742 23.384 312.29 22.772 310.562 22.772C308.834 22.772 307.382 23.384 306.206 24.608C305.03 25.832 304.442 27.332 304.442 29.108C304.442 30.884 305.03 32.384 306.206 33.608ZM330.146 20.18H338.786V38H335.546V31.196H331.622L327.266 38H323.522L328.166 31.016C326.702 30.704 325.562 30.08 324.746 29.144C323.954 28.184 323.558 27.032 323.558 25.688C323.558 24.056 324.134 22.736 325.286 21.728C326.438 20.696 328.058 20.18 330.146 20.18ZM335.546 28.172V23.204H330.794C329.522 23.204 328.538 23.42 327.842 23.852C327.146 24.284 326.798 24.908 326.798 25.724C326.798 27.356 328.13 28.172 330.794 28.172H335.546Z" fill="white"/>
<ellipse cx="11.1429" cy="351.589" rx="11.1429" ry="10.4464" fill="#FF8D00"/>
<rect x="15" y="291" width="220" height="53" fill="#FF8D00"/>
<path d="M36.536 329V309.056C35.672 310.04 34.364 310.508 32.612 310.46V307.436C35.108 307.436 36.416 306.224 36.536 303.8H39.92V329H36.536ZM52.621 329.504C50.221 329.504 48.217 328.892 46.609 327.668C45.025 326.42 44.089 324.788 43.801 322.772L47.185 322.304C47.377 323.576 47.953 324.596 48.913 325.364C49.897 326.108 51.121 326.48 52.585 326.48C54.169 326.48 55.453 326.06 56.437 325.22C57.445 324.356 57.949 323.216 57.949 321.8C57.949 320.432 57.469 319.34 56.509 318.524C55.573 317.684 54.157 317.264 52.261 317.264H51.433V314.816H52.261C53.941 314.816 55.201 314.42 56.041 313.628C56.905 312.836 57.337 311.816 57.337 310.568C57.337 309.296 56.905 308.264 56.041 307.472C55.177 306.656 54.073 306.248 52.729 306.248C51.481 306.248 50.413 306.584 49.525 307.256C48.637 307.928 48.061 308.828 47.797 309.956L44.521 309.524C44.809 307.724 45.709 306.236 47.221 305.06C48.757 303.86 50.593 303.26 52.729 303.26C55.081 303.26 56.989 303.932 58.453 305.276C59.941 306.596 60.685 308.252 60.685 310.244C60.685 311.66 60.301 312.872 59.533 313.88C58.789 314.864 57.745 315.524 56.401 315.86C57.961 316.172 59.185 316.868 60.073 317.948C60.985 319.028 61.441 320.36 61.441 321.944C61.441 324.176 60.625 326 58.993 327.416C57.361 328.808 55.237 329.504 52.621 329.504ZM67.1872 313.736C66.8272 314.096 66.3832 314.276 65.8552 314.276C65.3272 314.276 64.8712 314.096 64.4872 313.736C64.1272 313.352 63.9472 312.884 63.9472 312.332C63.9472 311.852 64.1272 311.432 64.4872 311.072C64.8712 310.712 65.3272 310.532 65.8552 310.532C66.3832 310.532 66.8272 310.712 67.1872 311.072C67.5712 311.432 67.7632 311.852 67.7632 312.332C67.7632 312.884 67.5712 313.352 67.1872 313.736ZM67.1872 328.568C66.8272 328.928 66.3832 329.108 65.8552 329.108C65.3272 329.108 64.8712 328.928 64.4872 328.568C64.1272 328.184 63.9472 327.728 63.9472 327.2C63.9472 326.72 64.1272 326.3 64.4872 325.94C64.8712 325.556 65.3272 325.364 65.8552 325.364C66.3832 325.364 66.8272 325.556 67.1872 325.94C67.5712 326.3 67.7632 326.72 67.7632 327.2C67.7632 327.728 67.5712 328.184 67.1872 328.568ZM80.0398 329C77.0638 329 74.7118 327.848 72.9838 325.544C71.2558 323.24 70.3918 320.192 70.3918 316.4C70.3918 312.608 71.2558 309.56 72.9838 307.256C74.7118 304.952 77.0638 303.8 80.0398 303.8C82.9918 303.8 85.3318 304.952 87.0598 307.256C88.7878 309.56 89.6518 312.608 89.6518 316.4C89.6518 320.192 88.7878 323.24 87.0598 325.544C85.3318 327.848 82.9918 329 80.0398 329ZM80.0398 325.76C82.0318 325.76 83.5678 324.92 84.6478 323.24C85.7518 321.536 86.3038 319.256 86.3038 316.4C86.3038 313.544 85.7518 311.276 84.6478 309.596C83.5678 307.892 82.0318 307.04 80.0398 307.04C78.0478 307.04 76.4998 307.892 75.3958 309.596C74.2918 311.276 73.7398 313.544 73.7398 316.4C73.7398 319.256 74.2798 321.536 75.3598 323.24C76.4638 324.92 78.0238 325.76 80.0398 325.76ZM104.989 329V323.6H92.1734V320.792L98.8334 303.8H102.217L95.4854 320.792H104.989V310.028H108.229V320.792H111.325V323.6H108.229V329H104.989ZM113.236 320.684V317.696H126.484V320.684H113.236ZM128.354 329V326.3L136.598 318.848C137.51 318.032 138.206 317.396 138.686 316.94C139.166 316.46 139.67 315.884 140.198 315.212C140.75 314.54 141.134 313.88 141.35 313.232C141.59 312.584 141.71 311.9 141.71 311.18C141.71 309.716 141.278 308.552 140.414 307.688C139.574 306.824 138.446 306.392 137.03 306.392C135.686 306.392 134.546 306.8 133.61 307.616C132.698 308.432 132.158 309.488 131.99 310.784L128.714 310.352C129.026 308.216 129.95 306.5 131.486 305.204C133.022 303.908 134.894 303.26 137.102 303.26C139.43 303.26 141.314 303.944 142.754 305.312C144.218 306.68 144.95 308.552 144.95 310.928C144.95 312.752 144.446 314.396 143.438 315.86C142.43 317.324 141.026 318.848 139.226 320.432L133.178 326.048H145.382V329H128.354ZM157.735 329C154.759 329 152.407 327.848 150.679 325.544C148.951 323.24 148.087 320.192 148.087 316.4C148.087 312.608 148.951 309.56 150.679 307.256C152.407 304.952 154.759 303.8 157.735 303.8C160.687 303.8 163.027 304.952 164.755 307.256C166.483 309.56 167.347 312.608 167.347 316.4C167.347 320.192 166.483 323.24 164.755 325.544C163.027 327.848 160.687 329 157.735 329ZM157.735 325.76C159.727 325.76 161.263 324.92 162.343 323.24C163.447 321.536 163.999 319.256 163.999 316.4C163.999 313.544 163.447 311.276 162.343 309.596C161.263 307.892 159.727 307.04 157.735 307.04C155.743 307.04 154.195 307.892 153.091 309.596C151.987 311.276 151.435 313.544 151.435 316.4C151.435 319.256 151.975 321.536 153.055 323.24C154.159 324.92 155.719 325.76 157.735 325.76ZM173.218 313.736C172.858 314.096 172.414 314.276 171.886 314.276C171.358 314.276 170.902 314.096 170.518 313.736C170.158 313.352 169.978 312.884 169.978 312.332C169.978 311.852 170.158 311.432 170.518 311.072C170.902 310.712 171.358 310.532 171.886 310.532C172.414 310.532 172.858 310.712 173.218 311.072C173.602 311.432 173.794 311.852 173.794 312.332C173.794 312.884 173.602 313.352 173.218 313.736ZM173.218 328.568C172.858 328.928 172.414 329.108 171.886 329.108C171.358 329.108 170.902 328.928 170.518 328.568C170.158 328.184 169.978 327.728 169.978 327.2C169.978 326.72 170.158 326.3 170.518 325.94C170.902 325.556 171.358 325.364 171.886 325.364C172.414 325.364 172.858 325.556 173.218 325.94C173.602 326.3 173.794 326.72 173.794 327.2C173.794 327.728 173.602 328.184 173.218 328.568ZM186.071 329C183.095 329 180.743 327.848 179.015 325.544C177.287 323.24 176.423 320.192 176.423 316.4C176.423 312.608 177.287 309.56 179.015 307.256C180.743 304.952 183.095 303.8 186.071 303.8C189.023 303.8 191.363 304.952 193.091 307.256C194.819 309.56 195.683 312.608 195.683 316.4C195.683 320.192 194.819 323.24 193.091 325.544C191.363 327.848 189.023 329 186.071 329ZM186.071 325.76C188.063 325.76 189.599 324.92 190.679 323.24C191.783 321.536 192.335 319.256 192.335 316.4C192.335 313.544 191.783 311.276 190.679 309.596C189.599 307.892 188.063 307.04 186.071 307.04C184.079 307.04 182.531 307.892 181.427 309.596C180.323 311.276 179.771 313.544 179.771 316.4C179.771 319.256 180.311 321.536 181.391 323.24C182.495 324.92 184.055 325.76 186.071 325.76ZM207.03 329.54C204.846 329.54 202.926 328.916 201.27 327.668C199.638 326.396 198.63 324.776 198.246 322.808L201.486 321.908C201.654 323.276 202.254 324.38 203.286 325.22C204.318 326.06 205.554 326.48 206.994 326.48C208.602 326.48 209.922 325.976 210.954 324.968C212.01 323.96 212.538 322.676 212.538 321.116C212.538 319.556 212.022 318.296 210.99 317.336C209.982 316.352 208.734 315.86 207.246 315.86C205.062 315.86 203.43 316.652 202.35 318.236L199.434 316.832L200.226 303.8H213.87V306.824H202.998L202.566 314.636C203.862 313.58 205.554 313.052 207.642 313.052C209.898 313.052 211.818 313.796 213.402 315.284C215.01 316.748 215.814 318.68 215.814 321.08C215.814 323.6 214.986 325.64 213.33 327.2C211.698 328.76 209.598 329.54 207.03 329.54Z" fill="white"/>
<ellipse cx="97.1429" cy="146.589" rx="11.1429" ry="10.4464" fill="#0092FF"/>
<rect x="100" y="86" width="163" height="53" fill="#0092FF"/>
<path d="M117.692 124.036C117.164 124.036 116.756 124.024 116.468 124V121.3C117.836 121.396 118.784 121.096 119.312 120.4C119.864 119.704 120.14 118.408 120.14 116.512V106.18H134.684V124H131.48V108.952H123.308V116.944C123.308 119.392 122.852 121.192 121.94 122.344C121.052 123.472 119.636 124.036 117.692 124.036ZM147.252 105.712C149.868 105.712 152.016 106.564 153.696 108.268C155.376 109.948 156.252 112.168 156.324 114.928C156.324 115.336 156.312 115.66 156.288 115.9H141.06C141.228 117.628 141.9 119.02 143.076 120.076C144.276 121.132 145.704 121.66 147.36 121.66C149.712 121.66 151.524 120.832 152.796 119.176L154.848 120.832C154.032 121.984 152.952 122.872 151.608 123.496C150.288 124.096 148.848 124.396 147.288 124.396C144.72 124.396 142.524 123.496 140.7 121.696C138.9 119.872 138 117.676 138 115.108C138 112.444 138.876 110.212 140.628 108.412C142.404 106.612 144.612 105.712 147.252 105.712ZM147.252 108.412C145.764 108.412 144.468 108.856 143.364 109.744C142.284 110.632 141.576 111.796 141.24 113.236H153.228C152.868 111.796 152.16 110.632 151.104 109.744C150.072 108.856 148.788 108.412 147.252 108.412ZM159.504 124V106.18H162.744V113.452H166.164L172.68 106.18H176.856L168.792 114.856L176.856 124H172.752L166.164 116.224H162.744V124H159.504ZM197.071 129.76V124H179.683V106.18H182.887V121.264H192.967V106.18H196.135V121.264H200.059V129.76H197.071ZM216.952 106.18H220.012V124H216.952V110.608L206.404 124H203.344V106.18H206.404V119.572L216.952 106.18ZM230.224 106.18H238.864V124H235.624V117.196H231.7L227.344 124H223.6L228.244 117.016C226.78 116.704 225.64 116.08 224.824 115.144C224.032 114.184 223.636 113.032 223.636 111.688C223.636 110.056 224.212 108.736 225.364 107.728C226.516 106.696 228.136 106.18 230.224 106.18ZM235.624 114.172V109.204H230.872C229.6 109.204 228.616 109.42 227.92 109.852C227.224 110.284 226.876 110.908 226.876 111.724C226.876 113.356 228.208 114.172 230.872 114.172H235.624Z" fill="white"/>
</svg>
