<svg width="391" height="372" viewBox="0 0 391 372" fill="none" xmlns="http://www.w3.org/2000/svg">
<ellipse cx="10.3923" cy="60.589" rx="10.3923" ry="10.4464" fill="#0092FF"/>
<rect x="13.9897" width="166.01" height="53" fill="#0092FF"/>
<path d="M32.692 38.036C32.164 38.036 31.756 38.024 31.468 38V35.3C32.836 35.396 33.784 35.096 34.312 34.4C34.864 33.704 35.14 32.408 35.14 30.512V20.18H49.684V38H46.48V22.952H38.308V30.944C38.308 33.392 37.852 35.192 36.94 36.344C36.052 37.472 34.636 38.036 32.692 38.036ZM62.2517 19.712C64.8677 19.712 67.0157 20.564 68.6957 22.268C70.3757 23.948 71.2517 26.168 71.3237 28.928C71.3237 29.336 71.3117 29.66 71.2877 29.9H56.0597C56.2277 31.628 56.8997 33.02 58.0757 34.076C59.2757 35.132 60.7037 35.66 62.3597 35.66C64.7117 35.66 66.5237 34.832 67.7957 33.176L69.8477 34.832C69.0317 35.984 67.9517 36.872 66.6077 37.496C65.2877 38.096 63.8477 38.396 62.2877 38.396C59.7197 38.396 57.5237 37.496 55.6997 35.696C53.8997 33.872 52.9997 31.676 52.9997 29.108C52.9997 26.444 53.8757 24.212 55.6277 22.412C57.4037 20.612 59.6117 19.712 62.2517 19.712ZM62.2517 22.412C60.7637 22.412 59.4677 22.856 58.3637 23.744C57.2837 24.632 56.5757 25.796 56.2397 27.236H68.2277C67.8677 25.796 67.1597 24.632 66.1037 23.744C65.0717 22.856 63.7877 22.412 62.2517 22.412ZM74.5038 38V20.18H77.7438V27.452H81.1638L87.6798 20.18H91.8558L83.7918 28.856L91.8558 38H87.7518L81.1638 30.224H77.7438V38H74.5038ZM112.071 43.76V38H94.6834V20.18H97.8874V35.264H107.967V20.18H111.135V35.264H115.059V43.76H112.071ZM131.952 20.18H135.012V38H131.952V24.608L121.404 38H118.344V20.18H121.404V33.572L131.952 20.18ZM145.224 20.18H153.864V38H150.624V31.196H146.7L142.344 38H138.6L143.244 31.016C141.78 30.704 140.64 30.08 139.824 29.144C139.032 28.184 138.636 27.032 138.636 25.688C138.636 24.056 139.212 22.736 140.364 21.728C141.516 20.696 143.136 20.18 145.224 20.18ZM150.624 28.172V23.204H145.872C144.6 23.204 143.616 23.42 142.92 23.852C142.224 24.284 141.876 24.908 141.876 25.724C141.876 27.356 143.208 28.172 145.872 28.172H150.624Z" fill="white"/>
<ellipse cx="10.2416" cy="351.589" rx="10.2416" ry="10.4464" fill="#FF8D00"/>
<rect x="13.7869" y="291" width="111.213" height="53" fill="#FF8D00"/>
<path d="M32.116 329V326.3L40.36 318.848C41.272 318.032 41.968 317.396 42.448 316.94C42.928 316.46 43.432 315.884 43.96 315.212C44.512 314.54 44.896 313.88 45.112 313.232C45.352 312.584 45.472 311.9 45.472 311.18C45.472 309.716 45.04 308.552 44.176 307.688C43.336 306.824 42.208 306.392 40.792 306.392C39.448 306.392 38.308 306.8 37.372 307.616C36.46 308.432 35.92 309.488 35.752 310.784L32.476 310.352C32.788 308.216 33.712 306.5 35.248 305.204C36.784 303.908 38.656 303.26 40.864 303.26C43.192 303.26 45.076 303.944 46.516 305.312C47.98 306.68 48.712 308.552 48.712 310.928C48.712 312.752 48.208 314.396 47.2 315.86C46.192 317.324 44.788 318.848 42.988 320.432L36.94 326.048H49.144V329H32.116ZM55.7508 329V309.056C54.8868 310.04 53.5788 310.508 51.8268 310.46V307.436C54.3228 307.436 55.6308 306.224 55.7508 303.8H59.1348V329H55.7508ZM66.5438 328.712C66.1358 329.096 65.6558 329.288 65.1038 329.288C64.5518 329.288 64.0718 329.096 63.6638 328.712C63.2798 328.304 63.0878 327.812 63.0878 327.236C63.0878 326.708 63.2798 326.252 63.6638 325.868C64.0718 325.484 64.5518 325.292 65.1038 325.292C65.6558 325.292 66.1358 325.484 66.5438 325.868C66.9518 326.252 67.1558 326.708 67.1558 327.236C67.1558 327.812 66.9518 328.304 66.5438 328.712ZM79.4265 329C76.4505 329 74.0985 327.848 72.3705 325.544C70.6425 323.24 69.7785 320.192 69.7785 316.4C69.7785 312.608 70.6425 309.56 72.3705 307.256C74.0985 304.952 76.4505 303.8 79.4265 303.8C82.3785 303.8 84.7185 304.952 86.4465 307.256C88.1745 309.56 89.0385 312.608 89.0385 316.4C89.0385 320.192 88.1745 323.24 86.4465 325.544C84.7185 327.848 82.3785 329 79.4265 329ZM79.4265 325.76C81.4185 325.76 82.9545 324.92 84.0345 323.24C85.1385 321.536 85.6905 319.256 85.6905 316.4C85.6905 313.544 85.1385 311.276 84.0345 309.596C82.9545 307.892 81.4185 307.04 79.4265 307.04C77.4345 307.04 75.8865 307.892 74.7825 309.596C73.6785 311.276 73.1265 313.544 73.1265 316.4C73.1265 319.256 73.6665 321.536 74.7465 323.24C75.8505 324.92 77.4105 325.76 79.4265 325.76ZM100.385 329.54C98.2012 329.54 96.2812 328.916 94.6252 327.668C92.9932 326.396 91.9852 324.776 91.6012 322.808L94.8412 321.908C95.0092 323.276 95.6092 324.38 96.6412 325.22C97.6732 326.06 98.9092 326.48 100.349 326.48C101.957 326.48 103.277 325.976 104.309 324.968C105.365 323.96 105.893 322.676 105.893 321.116C105.893 319.556 105.377 318.296 104.345 317.336C103.337 316.352 102.089 315.86 100.601 315.86C98.4172 315.86 96.7852 316.652 95.7052 318.236L92.7892 316.832L93.5812 303.8H107.225V306.824H96.3532L95.9212 314.636C97.2172 313.58 98.9092 313.052 100.997 313.052C103.253 313.052 105.173 313.796 106.757 315.284C108.365 316.748 109.169 318.68 109.169 321.08C109.169 323.6 108.341 325.64 106.685 327.2C105.053 328.76 102.953 329.54 100.385 329.54Z" fill="white"/>
<ellipse cx="97.3286" cy="146.589" rx="11.3286" ry="10.4464" fill="#0092FF"/>
<rect x="100.233" y="86" width="290.767" height="53" fill="#0092FF"/>
<path d="M131.048 106.18H134.252V124H131.048V117.34C129.08 118.324 127.04 118.816 124.928 118.816C122.864 118.816 121.136 118.3 119.744 117.268C118.352 116.236 117.656 114.676 117.656 112.588V106.18H120.86V112.192C120.86 113.512 121.292 114.496 122.156 115.144C123.02 115.792 124.148 116.116 125.54 116.116C127.364 116.116 129.2 115.564 131.048 114.46V106.18ZM146.146 124.252C143.722 124.252 141.682 123.376 140.026 121.624C138.394 119.848 137.578 117.676 137.578 115.108C137.578 112.516 138.394 110.344 140.026 108.592C141.682 106.816 143.722 105.928 146.146 105.928C149.026 105.928 151.318 106.9 153.022 108.844V106.18H156.262V124H153.022V121.372C151.27 123.292 148.978 124.252 146.146 124.252ZM142.546 119.608C143.722 120.808 145.174 121.408 146.902 121.408C148.63 121.408 150.082 120.808 151.258 119.608C152.434 118.384 153.022 116.884 153.022 115.108C153.022 113.332 152.434 111.832 151.258 110.608C150.082 109.384 148.63 108.772 146.902 108.772C145.174 108.772 143.722 109.384 142.546 110.608C141.37 111.832 140.782 113.332 140.782 115.108C140.782 116.884 141.37 118.384 142.546 119.608ZM169.09 124.432C166.45 124.432 164.23 123.532 162.43 121.732C160.63 119.908 159.73 117.688 159.73 115.072C159.73 112.456 160.63 110.236 162.43 108.412C164.23 106.588 166.45 105.676 169.09 105.676C170.626 105.676 172.066 106.036 173.41 106.756C174.754 107.452 175.858 108.4 176.722 109.6L174.058 111.544C172.906 109.744 171.25 108.82 169.09 108.772C167.338 108.772 165.862 109.384 164.662 110.608C163.486 111.832 162.898 113.332 162.898 115.108C162.898 116.884 163.486 118.372 164.662 119.572C165.862 120.772 167.338 121.384 169.09 121.408C170.122 121.408 171.082 121.156 171.97 120.652C172.882 120.148 173.602 119.476 174.13 118.636L176.722 120.544C175.858 121.744 174.754 122.692 173.41 123.388C172.066 124.084 170.626 124.432 169.09 124.432ZM195.502 106.18V108.988H188.734V124H185.53V108.988H178.762V106.18H195.502ZM211.924 106.18H214.984V124H211.924V110.608L201.376 124H198.316V106.18H201.376V119.572L211.924 106.18ZM232.193 106.18H235.397V124H232.193V117.34C230.225 118.324 228.185 118.816 226.073 118.816C224.009 118.816 222.281 118.3 220.889 117.268C219.497 116.236 218.801 114.676 218.801 112.588V106.18H222.005V112.192C222.005 113.512 222.437 114.496 223.301 115.144C224.165 115.792 225.293 116.116 226.685 116.116C228.509 116.116 230.345 115.564 232.193 114.46V106.18ZM239.73 124V106.18H242.97V113.452H246.39L252.906 106.18H257.082L249.018 114.856L257.082 124H252.978L246.39 116.224H242.97V124H239.73ZM266.767 124.252C264.343 124.252 262.303 123.376 260.647 121.624C259.015 119.848 258.199 117.676 258.199 115.108C258.199 112.516 259.015 110.344 260.647 108.592C262.303 106.816 264.343 105.928 266.767 105.928C269.647 105.928 271.939 106.9 273.643 108.844V106.18H276.883V124H273.643V121.372C271.891 123.292 269.599 124.252 266.767 124.252ZM263.167 119.608C264.343 120.808 265.795 121.408 267.523 121.408C269.251 121.408 270.703 120.808 271.879 119.608C273.055 118.384 273.643 116.884 273.643 115.108C273.643 113.332 273.055 111.832 271.879 110.608C270.703 109.384 269.251 108.772 267.523 108.772C265.795 108.772 264.343 109.384 263.167 110.608C261.991 111.832 261.403 113.332 261.403 115.108C261.403 116.884 261.991 118.384 263.167 119.608ZM310.634 106.18V124H307.574V110.536L301.382 119.644H299.042L292.922 110.572V124H289.898V106.18H293.354L300.23 116.548L307.142 106.18H310.634ZM328.573 106.18H331.633V124H328.573V110.608L318.025 124H314.965V106.18H318.025V119.572L328.573 106.18ZM335.953 133V106.18H339.193V108.844C340.897 106.9 343.189 105.928 346.069 105.928C348.493 105.928 350.521 106.816 352.153 108.592C353.809 110.344 354.637 112.516 354.637 115.108C354.637 117.676 353.809 119.848 352.153 121.624C350.521 123.376 348.493 124.252 346.069 124.252C343.237 124.252 340.945 123.292 339.193 121.372V133H335.953ZM340.957 119.608C342.133 120.808 343.585 121.408 345.313 121.408C347.041 121.408 348.481 120.808 349.633 119.608C350.785 118.384 351.361 116.884 351.361 115.108C351.361 113.308 350.785 111.808 349.633 110.608C348.481 109.384 347.041 108.772 345.313 108.772C343.585 108.772 342.133 109.384 340.957 110.608C339.781 111.832 339.193 113.332 339.193 115.108C339.193 116.884 339.781 118.384 340.957 119.608ZM365.556 124.252C363.132 124.252 361.092 123.376 359.436 121.624C357.804 119.848 356.988 117.676 356.988 115.108C356.988 112.516 357.804 110.344 359.436 108.592C361.092 106.816 363.132 105.928 365.556 105.928C368.436 105.928 370.728 106.9 372.432 108.844V106.18H375.672V124H372.432V121.372C370.68 123.292 368.388 124.252 365.556 124.252ZM361.956 119.608C363.132 120.808 364.584 121.408 366.312 121.408C368.04 121.408 369.492 120.808 370.668 119.608C371.844 118.384 372.432 116.884 372.432 115.108C372.432 113.332 371.844 111.832 370.668 110.608C369.492 109.384 368.04 108.772 366.312 108.772C364.584 108.772 363.132 109.384 361.956 110.608C360.78 111.832 360.192 113.332 360.192 115.108C360.192 116.884 360.78 118.384 361.956 119.608Z" fill="white"/>
</svg>
