<svg width="385" height="372" viewBox="0 0 385 372" fill="none" xmlns="http://www.w3.org/2000/svg">
<ellipse cx="10.3923" cy="60.589" rx="10.3923" ry="10.4464" fill="#0092FF"/>
<rect x="13.9897" width="166.01" height="53" fill="#0092FF"/>
<path d="M33.692 38.036C33.164 38.036 32.756 38.024 32.468 38V35.3C33.836 35.396 34.784 35.096 35.312 34.4C35.864 33.704 36.14 32.408 36.14 30.512V20.18H50.684V38H47.48V22.952H39.308V30.944C39.308 33.392 38.852 35.192 37.94 36.344C37.052 37.472 35.636 38.036 33.692 38.036ZM63.2517 19.712C65.8677 19.712 68.0157 20.564 69.6957 22.268C71.3757 23.948 72.2517 26.168 72.3237 28.928C72.3237 29.336 72.3117 29.66 72.2877 29.9H57.0597C57.2277 31.628 57.8997 33.02 59.0757 34.076C60.2757 35.132 61.7037 35.66 63.3597 35.66C65.7117 35.66 67.5237 34.832 68.7957 33.176L70.8477 34.832C70.0317 35.984 68.9517 36.872 67.6077 37.496C66.2877 38.096 64.8477 38.396 63.2877 38.396C60.7197 38.396 58.5237 37.496 56.6997 35.696C54.8997 33.872 53.9997 31.676 53.9997 29.108C53.9997 26.444 54.8757 24.212 56.6277 22.412C58.4037 20.612 60.6117 19.712 63.2517 19.712ZM63.2517 22.412C61.7637 22.412 60.4677 22.856 59.3637 23.744C58.2837 24.632 57.5757 25.796 57.2397 27.236H69.2277C68.8677 25.796 68.1597 24.632 67.1037 23.744C66.0717 22.856 64.7877 22.412 63.2517 22.412ZM75.5038 38V20.18H78.7438V27.452H82.1638L88.6798 20.18H92.8558L84.7918 28.856L92.8558 38H88.7518L82.1638 30.224H78.7438V38H75.5038ZM113.071 43.76V38H95.6834V20.18H98.8874V35.264H108.967V20.18H112.135V35.264H116.059V43.76H113.071ZM132.952 20.18H136.012V38H132.952V24.608L122.404 38H119.344V20.18H122.404V33.572L132.952 20.18ZM146.224 20.18H154.864V38H151.624V31.196H147.7L143.344 38H139.6L144.244 31.016C142.78 30.704 141.64 30.08 140.824 29.144C140.032 28.184 139.636 27.032 139.636 25.688C139.636 24.056 140.212 22.736 141.364 21.728C142.516 20.696 144.136 20.18 146.224 20.18ZM151.624 28.172V23.204H146.872C145.6 23.204 144.616 23.42 143.92 23.852C143.224 24.284 142.876 24.908 142.876 25.724C142.876 27.356 144.208 28.172 146.872 28.172H151.624Z" fill="white"/>
<ellipse cx="10.4055" cy="351.589" rx="10.4055" ry="10.4464" fill="#FF8D00"/>
<rect x="14.0076" y="291" width="112.993" height="53" fill="#FF8D00"/>
<path d="M32.116 329V326.3L40.36 318.848C41.272 318.032 41.968 317.396 42.448 316.94C42.928 316.46 43.432 315.884 43.96 315.212C44.512 314.54 44.896 313.88 45.112 313.232C45.352 312.584 45.472 311.9 45.472 311.18C45.472 309.716 45.04 308.552 44.176 307.688C43.336 306.824 42.208 306.392 40.792 306.392C39.448 306.392 38.308 306.8 37.372 307.616C36.46 308.432 35.92 309.488 35.752 310.784L32.476 310.352C32.788 308.216 33.712 306.5 35.248 305.204C36.784 303.908 38.656 303.26 40.864 303.26C43.192 303.26 45.076 303.944 46.516 305.312C47.98 306.68 48.712 308.552 48.712 310.928C48.712 312.752 48.208 314.396 47.2 315.86C46.192 317.324 44.788 318.848 42.988 320.432L36.94 326.048H49.144V329H32.116ZM55.7508 329V309.056C54.8868 310.04 53.5788 310.508 51.8268 310.46V307.436C54.3228 307.436 55.6308 306.224 55.7508 303.8H59.1348V329H55.7508ZM66.5438 328.712C66.1358 329.096 65.6558 329.288 65.1038 329.288C64.5518 329.288 64.0718 329.096 63.6638 328.712C63.2798 328.304 63.0878 327.812 63.0878 327.236C63.0878 326.708 63.2798 326.252 63.6638 325.868C64.0718 325.484 64.5518 325.292 65.1038 325.292C65.6558 325.292 66.1358 325.484 66.5438 325.868C66.9518 326.252 67.1558 326.708 67.1558 327.236C67.1558 327.812 66.9518 328.304 66.5438 328.712ZM79.4265 329C76.4505 329 74.0985 327.848 72.3705 325.544C70.6425 323.24 69.7785 320.192 69.7785 316.4C69.7785 312.608 70.6425 309.56 72.3705 307.256C74.0985 304.952 76.4505 303.8 79.4265 303.8C82.3785 303.8 84.7185 304.952 86.4465 307.256C88.1745 309.56 89.0385 312.608 89.0385 316.4C89.0385 320.192 88.1745 323.24 86.4465 325.544C84.7185 327.848 82.3785 329 79.4265 329ZM79.4265 325.76C81.4185 325.76 82.9545 324.92 84.0345 323.24C85.1385 321.536 85.6905 319.256 85.6905 316.4C85.6905 313.544 85.1385 311.276 84.0345 309.596C82.9545 307.892 81.4185 307.04 79.4265 307.04C77.4345 307.04 75.8865 307.892 74.7825 309.596C73.6785 311.276 73.1265 313.544 73.1265 316.4C73.1265 319.256 73.6665 321.536 74.7465 323.24C75.8505 324.92 77.4105 325.76 79.4265 325.76ZM100.385 329.54C98.2012 329.54 96.2812 328.916 94.6252 327.668C92.9932 326.396 91.9852 324.776 91.6012 322.808L94.8412 321.908C95.0092 323.276 95.6092 324.38 96.6412 325.22C97.6732 326.06 98.9092 326.48 100.349 326.48C101.957 326.48 103.277 325.976 104.309 324.968C105.365 323.96 105.893 322.676 105.893 321.116C105.893 319.556 105.377 318.296 104.345 317.336C103.337 316.352 102.089 315.86 100.601 315.86C98.4172 315.86 96.7852 316.652 95.7052 318.236L92.7892 316.832L93.5812 303.8H107.225V306.824H96.3532L95.9212 314.636C97.2172 313.58 98.9092 313.052 100.997 313.052C103.253 313.052 105.173 313.796 106.757 315.284C108.365 316.748 109.169 318.68 109.169 321.08C109.169 323.6 108.341 325.64 106.685 327.2C105.053 328.76 102.953 329.54 100.385 329.54Z" fill="white"/>
<ellipse cx="95.9914" cy="146.589" rx="9.99143" ry="10.4464" fill="#0092FF"/>
<rect x="98.5532" y="86" width="256.447" height="53" fill="#0092FF"/>
<path d="M133.352 121.696C131.528 123.52 129.308 124.432 126.692 124.432C124.076 124.432 121.856 123.52 120.032 121.696C118.208 119.872 117.296 117.664 117.296 115.072C117.296 112.456 118.208 110.236 120.032 108.412C121.856 106.588 124.076 105.676 126.692 105.676C129.308 105.676 131.528 106.588 133.352 108.412C135.2 110.236 136.124 112.456 136.124 115.072C136.124 117.664 135.2 119.872 133.352 121.696ZM126.692 121.516C128.444 121.54 129.92 120.94 131.12 119.716C132.344 118.468 132.956 116.932 132.956 115.108C132.956 113.284 132.356 111.748 131.156 110.5C129.956 109.252 128.468 108.628 126.692 108.628C124.916 108.628 123.428 109.252 122.228 110.5C121.052 111.748 120.464 113.284 120.464 115.108C120.464 116.932 121.064 118.468 122.264 119.716C123.464 120.94 124.94 121.54 126.692 121.516ZM148.146 124V106.18H157.182C159.054 106.18 160.494 106.612 161.502 107.476C162.534 108.34 163.05 109.492 163.05 110.932C163.05 112.828 162.21 114.088 160.53 114.712C162.522 115.384 163.518 116.8 163.518 118.96C163.518 120.472 162.978 121.696 161.898 122.632C160.842 123.544 159.294 124 157.254 124H148.146ZM151.386 113.416H156.426C157.578 113.416 158.442 113.224 159.018 112.84C159.594 112.456 159.882 111.82 159.882 110.932C159.882 109.588 158.73 108.916 156.426 108.916H151.386V113.416ZM151.386 121.264H156.498C157.842 121.264 158.802 121.096 159.378 120.76C159.978 120.4 160.278 119.776 160.278 118.888C160.278 117.928 159.978 117.232 159.378 116.8C158.778 116.368 157.818 116.152 156.498 116.152H151.386V121.264ZM175.025 105.712C177.641 105.712 179.789 106.564 181.469 108.268C183.149 109.948 184.025 112.168 184.097 114.928C184.097 115.336 184.085 115.66 184.061 115.9H168.833C169.001 117.628 169.673 119.02 170.849 120.076C172.049 121.132 173.477 121.66 175.133 121.66C177.485 121.66 179.297 120.832 180.569 119.176L182.621 120.832C181.805 121.984 180.725 122.872 179.381 123.496C178.061 124.096 176.621 124.396 175.061 124.396C172.493 124.396 170.297 123.496 168.473 121.696C166.673 119.872 165.773 117.676 165.773 115.108C165.773 112.444 166.649 110.212 168.401 108.412C170.177 106.612 172.385 105.712 175.025 105.712ZM175.025 108.412C173.537 108.412 172.241 108.856 171.137 109.744C170.057 110.632 169.349 111.796 169.013 113.236H181.001C180.641 111.796 179.933 110.632 178.877 109.744C177.845 108.856 176.561 108.412 175.025 108.412ZM186.915 124.036C186.387 124.036 185.979 124.024 185.691 124V121.3C187.059 121.396 188.007 121.096 188.535 120.4C189.087 119.704 189.363 118.408 189.363 116.512V106.18H203.907V124H200.703V108.952H192.531V116.944C192.531 119.392 192.075 121.192 191.163 122.344C190.275 123.472 188.859 124.036 186.915 124.036ZM221.838 106.18H224.898V124H221.838V110.608L211.29 124H208.23V106.18H211.29V119.572L221.838 106.18ZM229.219 124V106.18H232.459V113.452H235.879L242.395 106.18H246.571L238.507 114.856L246.571 124H242.467L235.879 116.224H232.459V124H229.219ZM256.255 124.252C253.831 124.252 251.791 123.376 250.135 121.624C248.503 119.848 247.687 117.676 247.687 115.108C247.687 112.516 248.503 110.344 250.135 108.592C251.791 106.816 253.831 105.928 256.255 105.928C259.135 105.928 261.427 106.9 263.131 108.844V106.18H266.371V124H263.131V121.372C261.379 123.292 259.087 124.252 256.255 124.252ZM252.655 119.608C253.831 120.808 255.283 121.408 257.011 121.408C258.739 121.408 260.191 120.808 261.367 119.608C262.543 118.384 263.131 116.884 263.131 115.108C263.131 113.332 262.543 111.832 261.367 110.608C260.191 109.384 258.739 108.772 257.011 108.772C255.283 108.772 253.831 109.384 252.655 110.608C251.479 111.832 250.891 113.332 250.891 115.108C250.891 116.884 251.479 118.384 252.655 119.608ZM284.203 106.18H287.407V124H284.203V116.476H273.907V124H270.703V106.18H273.907V113.704H284.203V106.18ZM299.286 124.252C296.862 124.252 294.822 123.376 293.166 121.624C291.534 119.848 290.718 117.676 290.718 115.108C290.718 112.516 291.534 110.344 293.166 108.592C294.822 106.816 296.862 105.928 299.286 105.928C302.166 105.928 304.458 106.9 306.162 108.844V106.18H309.402V124H306.162V121.372C304.41 123.292 302.118 124.252 299.286 124.252ZM295.686 119.608C296.862 120.808 298.314 121.408 300.042 121.408C301.77 121.408 303.222 120.808 304.398 119.608C305.574 118.384 306.162 116.884 306.162 115.108C306.162 113.332 305.574 111.832 304.398 110.608C303.222 109.384 301.77 108.772 300.042 108.772C298.314 108.772 296.862 109.384 295.686 110.608C294.51 111.832 293.922 113.332 293.922 115.108C293.922 116.884 294.51 118.384 295.686 119.608ZM312.255 124L319.059 114.964L312.255 106.18H316.143L321.111 112.804L326.007 106.18H329.895L323.127 114.964L329.895 124H326.043L321.111 117.088L316.143 124H312.255Z" fill="white"/>
</svg>
