<svg width="432" height="368" viewBox="0 0 432 368" fill="none" xmlns="http://www.w3.org/2000/svg">
<path d="M385.437 283.678C254.532 223.993 265.643 199.871 280.549 191.306C285.527 188.43 291.296 187.189 297.033 187.189H367.404V128.836H308.873C346.305 54.1993 304.593 22.1473 265.673 8.46699C233.554 -2.82233 198.277 -2.82233 166.158 8.46699C127.33 22.1473 85.5868 54.1993 123.019 128.836H64.5181V187.189H134.889C140.657 187.189 146.395 188.46 151.374 191.306C166.28 199.871 177.391 223.993 46.5155 283.678C21.2877 295.179 3.19406 318.817 0.370729 346.329C-0.448949 354.168 0.00642754 361.735 2.58689 368H216.007H429.426C432.007 361.735 432.432 354.168 431.643 346.329C428.759 318.817 410.665 295.21 385.437 283.678Z" fill="#0092FF"/>
</svg>
