<svg width="170" height="83" viewBox="0 0 170 83" fill="none" xmlns="http://www.w3.org/2000/svg">
<circle cx="7.5" cy="75.5" r="7.5" fill="#FF8D00"/>
<path d="M25.16 27V9.18H28.4V16.452H31.82L38.336 9.18H42.512L34.448 17.856L42.512 27H38.408L31.82 19.224H28.4V27H25.16ZM44.942 27.036C44.414 27.036 44.006 27.024 43.718 27V24.3C45.086 24.396 46.034 24.096 46.562 23.4C47.114 22.704 47.39 21.408 47.39 19.512V9.18H61.934V27H58.73V11.952H50.558V19.944C50.558 22.392 50.102 24.192 49.19 25.344C48.302 26.472 46.886 27.036 44.942 27.036ZM79.8657 9.18H82.9257V27H79.8657V13.608L69.3177 27H66.2577V9.18H69.3177V22.572L79.8657 9.18ZM87.2459 27V9.18H90.4859V16.452H93.9059L100.422 9.18H104.598L96.5339 17.856L104.598 27H100.494L93.9059 19.224H90.4859V27H87.2459ZM114.283 27.252C111.859 27.252 109.819 26.376 108.163 24.624C106.531 22.848 105.715 20.676 105.715 18.108C105.715 15.516 106.531 13.344 108.163 11.592C109.819 9.816 111.859 8.928 114.283 8.928C117.163 8.928 119.455 9.9 121.159 11.844V9.18H124.398V27H121.159V24.372C119.407 26.292 117.115 27.252 114.283 27.252ZM110.683 22.608C111.859 23.808 113.311 24.408 115.039 24.408C116.767 24.408 118.219 23.808 119.395 22.608C120.571 21.384 121.159 19.884 121.159 18.108C121.159 16.332 120.571 14.832 119.395 13.608C118.219 12.384 116.767 11.772 115.039 11.772C113.311 11.772 111.859 12.384 110.683 13.608C109.507 14.832 108.919 16.332 108.919 18.108C108.919 19.884 109.507 21.384 110.683 22.608ZM137.082 6.012C135.618 6.012 134.466 5.604 133.626 4.788C132.81 3.972 132.378 2.976 132.33 1.8H134.13C134.202 2.448 134.478 3.036 134.958 3.564C135.438 4.068 136.146 4.32 137.082 4.32C138.042 4.32 138.762 4.068 139.242 3.564C139.722 3.036 139.998 2.448 140.07 1.8H141.87C141.822 2.976 141.378 3.972 140.538 4.788C139.722 5.604 138.57 6.012 137.082 6.012ZM142.338 9.18H145.398V27H142.338V13.608L131.79 27H128.73V9.18H131.79V22.572L142.338 9.18ZM40.352 60.696C38.528 62.52 36.308 63.432 33.692 63.432C31.076 63.432 28.856 62.52 27.032 60.696C25.208 58.872 24.296 56.664 24.296 54.072C24.296 51.456 25.208 49.236 27.032 47.412C28.856 45.588 31.076 44.676 33.692 44.676C36.308 44.676 38.528 45.588 40.352 47.412C42.2 49.236 43.124 51.456 43.124 54.072C43.124 56.664 42.2 58.872 40.352 60.696ZM33.692 60.516C35.444 60.54 36.92 59.94 38.12 58.716C39.344 57.468 39.956 55.932 39.956 54.108C39.956 52.284 39.356 50.748 38.156 49.5C36.956 48.252 35.468 47.628 33.692 47.628C31.916 47.628 30.428 48.252 29.228 49.5C28.052 50.748 27.464 52.284 27.464 54.108C27.464 55.932 28.064 57.468 29.264 58.716C30.464 59.94 31.94 60.54 33.692 60.516ZM55.1983 63.432C52.6063 63.432 50.4223 62.544 48.6463 60.768C46.8943 58.992 46.0183 56.7 46.0183 53.892C46.0183 51.324 46.3183 49.092 46.9183 47.196C47.5423 45.276 48.2863 43.8 49.1503 42.768C50.0143 41.736 51.0703 40.8 52.3183 39.96C53.8303 38.928 57.2143 37.608 62.4703 36L63.4783 38.34C58.1983 39.972 54.9343 41.232 53.6863 42.12C52.4383 43.008 51.4303 44.064 50.6623 45.288C49.8943 46.488 49.3423 48.048 49.0063 49.968C49.6063 48.792 50.5063 47.844 51.7063 47.124C52.9063 46.38 54.2863 46.008 55.8463 46.008C58.2703 46.008 60.2623 46.836 61.8223 48.492C63.4063 50.148 64.1983 52.212 64.1983 54.684C64.1983 57.132 63.3343 59.208 61.6063 60.912C59.9023 62.592 57.7663 63.432 55.1983 63.432ZM55.1983 60.588C56.8543 60.588 58.2463 60.012 59.3743 58.86C60.5263 57.708 61.1023 56.316 61.1023 54.684C61.1023 53.004 60.5263 51.588 59.3743 50.436C58.2463 49.26 56.8543 48.672 55.1983 48.672C53.5663 48.672 52.1863 49.26 51.0583 50.436C49.9303 51.588 49.3663 53.004 49.3663 54.684C49.3663 56.316 49.9303 57.708 51.0583 58.86C52.1863 60.012 53.5663 60.588 55.1983 60.588ZM69.7286 63V47.988H65.1566V45.18H72.9686V51.804H78.6566C80.5526 51.804 82.0406 52.32 83.1206 53.352C84.2006 54.384 84.7406 55.74 84.7406 57.42C84.7406 59.052 84.2006 60.396 83.1206 61.452C82.0406 62.484 80.5526 63 78.6566 63H69.7286ZM72.9686 60.192H77.7566C80.2526 60.192 81.5006 59.268 81.5006 57.42C81.5006 55.548 80.2526 54.612 77.7566 54.612H72.9686V60.192ZM96.1579 44.712C98.7739 44.712 100.922 45.564 102.602 47.268C104.282 48.948 105.158 51.168 105.23 53.928C105.23 54.336 105.218 54.66 105.194 54.9H89.9659C90.1339 56.628 90.8059 58.02 91.9819 59.076C93.1819 60.132 94.6099 60.66 96.2659 60.66C98.6179 60.66 100.43 59.832 101.702 58.176L103.754 59.832C102.938 60.984 101.858 61.872 100.514 62.496C99.1939 63.096 97.7539 63.396 96.1939 63.396C93.6259 63.396 91.4299 62.496 89.6059 60.696C87.8059 58.872 86.9059 56.676 86.9059 54.108C86.9059 51.444 87.7819 49.212 89.5339 47.412C91.3099 45.612 93.5179 44.712 96.1579 44.712ZM96.1579 47.412C94.6699 47.412 93.3739 47.856 92.2699 48.744C91.1899 49.632 90.4819 50.796 90.1459 52.236H102.134C101.774 50.796 101.066 49.632 100.01 48.744C98.9779 47.856 97.6939 47.412 96.1579 47.412ZM108.41 63V45.18H111.65V52.452H115.07L121.586 45.18H125.762L117.698 53.856L125.762 63H121.658L115.07 55.224H111.65V63H108.41ZM143.741 45.18V47.988H136.973V63H133.769V47.988H127.001V45.18H143.741ZM146.447 63V45.18H149.687V51.804H155.375C157.271 51.804 158.759 52.32 159.839 53.352C160.919 54.384 161.459 55.74 161.459 57.42C161.459 59.052 160.919 60.396 159.839 61.452C158.759 62.484 157.271 63 155.375 63H146.447ZM163.943 63V45.18H167.183V63H163.943ZM149.687 60.192H154.475C156.971 60.192 158.219 59.268 158.219 57.42C158.219 55.548 156.971 54.612 154.475 54.612H149.687V60.192Z" fill="#FF8D00"/>
</svg>
