<svg width="1488" height="1974" viewBox="0 0 1488 1974" fill="none" xmlns="http://www.w3.org/2000/svg">
<path d="M0 1055.99V228.053C0 228.053 63.1115 4.17358 327.323 0L1448 4.3797C1448 4.3797 1448 48.3311 1448 150.558V1916.76H1169.57C1169.57 1916.76 1131.98 1807.65 1400.37 1698.31C1400.37 1698.31 1156.75 1734.3 1094.83 1916.76H702.56C702.56 1916.76 4.77344 1228.53 1404.48 798.288C1404.48 798.288 71.3423 1012.69 393.144 1916.76H132.751L580.414 563.047L149.264 564.851C149.264 564.851 435.975 869.265 251.336 1055.99C251.336 1055.99 123.23 1164.46 0 1055.99Z" fill="black"/>
<path d="M1136.6 1872.22V1922H1095.31C1080.52 1922 931.074 1910.85 931.074 1897.11C928.176 1874.12 1080.55 1872.22 1095.31 1872.22H1136.6Z" fill="#0092FF"/>
<path d="M1174.85 1822.43L1134.48 1872.22H1095.31C1080.52 1872.22 931.074 1861.07 931.074 1847.33C928.176 1824.34 1080.55 1822.43 1095.31 1822.43H1174.85Z" fill="#0092FF"/>
<path d="M1244.95 1772.65L1174.19 1822.43H1095.31C1080.52 1822.43 931.074 1811.29 931.074 1797.54C928.176 1774.56 1080.55 1772.65 1095.31 1772.65H1244.95Z" fill="#0092FF"/>
<path d="M1312.94 1722.87L1236.46 1772.65H1095.31C1080.52 1772.65 931.074 1761.5 931.074 1747.76C928.176 1724.77 1080.55 1722.87 1095.31 1722.87H1312.94Z" fill="#0092FF"/>
<rect y="566" width="1488" height="1408" fill="#E5E5E5"/>
</svg>
