<svg width="148" height="26" viewBox="0 0 148 26" fill="none" xmlns="http://www.w3.org/2000/svg">
<path d="M11.3392 2.06459C11.8314 2.06459 12.2304 1.66587 12.2304 1.17402C12.2304 0.682169 11.8314 0.283447 11.3392 0.283447C10.847 0.283447 10.448 0.682169 10.448 1.17402C10.448 1.66587 10.847 2.06459 11.3392 2.06459Z" fill="white"/>
<path d="M0.0374756 25.143V0.0651637L16.5763 0V10.9884L2.88366 12.6034L16.5763 13.7023V25.0791L0.0374756 25.143Z" fill="white"/>
<path d="M113.211 0.0319824H96.6261V25.1111H113.211V0.0319824Z" fill="white"/>
<path d="M77.9124 0.0483004V25.1261L94.5777 25.0942L82.4719 12.5879L94.5777 0.0163574L77.9124 0.0483004Z" fill="white"/>
<path d="M47.0675 10.0544L48.8626 25.1111H56.6148L47.0419 0.0319824L37.2107 25.1111H44.9693L47.0675 10.0544Z" fill="white"/>
<path d="M126.558 0.0651637L124.768 11.6349L122.62 0.0651637L116.406 0.0166104V25.0944L122.887 25.143L124.722 13.2819L126.925 25.143L133.006 25.0791V0L126.558 0.0651637Z" fill="white"/>
<path d="M19.3407 0.0651637V25.143L35.8884 25.0791L22.931 17.2582L32.3416 12.6034L22.7367 10.1796L35.8884 0L19.3407 0.0651637Z" fill="white"/>
<path d="M57.7155 0.0319824V25.1111H64.2159L70.6192 10.9233L66.8358 25.1111H74.9856V0.0319824H68.9698L62.0819 13.25L66.1568 0.0319824H57.7155Z" fill="white"/>
<path d="M141.076 22.705L138.709 21.9978L138.002 24.3629L140.368 25.0702L141.076 22.705Z" fill="white"/>
<path d="M144.078 0.298828L147.887 1.43728L140.091 20.5571L144.078 0.298828Z" fill="white"/>
</svg>
