<svg width="121" height="87" viewBox="0 0 121 87" fill="none" xmlns="http://www.w3.org/2000/svg">
<path d="M49.7231 86.9964C59.1789 86.9461 122.212 85.8889 120.982 76.1232C120.982 70.2839 59.1248 65.5233 49.7231 65.2608L49.7231 65.25L49.7231 65.2464C59.1789 65.1961 122.212 64.1389 120.982 54.3732C120.982 48.5339 59.1248 43.7733 49.7231 43.5108L49.7231 43.5L49.7231 43.4964C59.1789 43.4461 122.212 42.3925 120.982 32.6268C120.982 26.7875 59.1249 22.0269 49.7231 21.7644L49.7231 21.7536L49.7231 21.75C59.1789 21.6961 122.212 20.6389 120.982 10.8768C120.982 5.03749 59.1249 0.276861 49.7231 0.0143794L49.7231 -3.11561e-06L49.0382 -3.14555e-06L0 -5.28908e-06L-3.80289e-06 87L49.0382 87L49.7231 86.9964Z" fill="white"/>
</svg>
