<svg width="73" height="55" viewBox="0 0 73 55" fill="none" xmlns="http://www.w3.org/2000/svg">
<path d="M71.5996 8.11398C71.5826 8.08389 71.5655 8.05568 71.5466 8.02558C70.6749 6.57165 69.2688 5.50706 67.6259 5.05377C58.3329 2.49199 42.7373 6.28387 42.7373 6.28387C40.4557 1.48383 38.3239 -0.058504 36.5009 0.00168465C34.678 -0.058504 32.5461 1.48383 30.2646 6.28387C30.2646 6.28387 14.669 2.49199 5.37603 5.05377C3.73309 5.50706 2.32703 6.57165 1.45534 8.02558C1.43828 8.05379 1.42123 8.08389 1.40228 8.11398C0.475638 9.68641 0.0113698 11.4864 0 13.3071V13.4219V43.3864H0.269086H29.3228H36.4991H52.6878V43.4466H52.7238C52.9228 48.4893 53.5045 56.2028 55.1721 55.9959C56.1651 55.9959 57.0254 48.4216 57.4461 43.4466H57.8175C58.0165 48.4893 58.5982 56.2028 60.2658 55.9959C61.2588 55.9959 62.1191 48.4216 62.5398 43.4466H62.9112C63.1101 48.4893 63.6919 56.2028 65.3595 55.9959C66.3524 55.9959 67.2128 48.4216 67.6334 43.4466H68.0049C68.2038 48.4893 68.7856 56.2028 70.4532 55.9959C71.8194 55.9959 72.9356 41.656 72.9962 39.476H72.9981V39.318V27.9499L73 13.3053C72.9886 11.4864 72.5244 9.68641 71.5996 8.11398Z" fill="#FF8D00"/>
</svg>
