<svg width="1435" height="319" viewBox="0 0 1435 319" fill="none" xmlns="http://www.w3.org/2000/svg">
<path d="M1434.75 160.228L1123.04 96.9242L1123.04 228.42L1434.75 160.228Z" fill="#0092FF"/>
<path d="M1150.85 144.249C1074.57 126.476 997.938 110.23 920.984 95.5878C844.412 81.0026 767.554 67.9829 690.466 56.5286C613.322 45.0743 535.967 35.1663 458.421 26.8238C380.933 18.5003 303.253 11.7423 225.498 6.58789C187.24 4.04885 148.887 1.3571 110.534 0.211672C78.6342 -0.742848 41.9613 0.784399 15.3873 20.8295C3.97119 29.4202 -2.78685 42.4208 1.10762 56.7578C4.92572 70.8657 16.4373 81.1364 29.667 86.3672C45.7985 92.7244 63.9918 92.6289 81.0587 93.7361C101.104 95.0343 121.13 96.3325 141.175 97.6115C220.935 102.766 300.676 107.92 380.436 113.075C460.578 118.248 540.739 123.422 620.881 128.614C701.023 133.807 781.185 138.961 861.327 144.154C941.087 149.309 1020.83 154.463 1100.59 159.617C1120.23 160.877 1139.88 162.156 1159.52 163.416C1159.52 160.228 1159.52 157.059 1159.52 153.871C1029.65 150.683 899.775 147.476 769.902 144.288C640.812 141.119 511.722 137.931 382.651 134.762C333.531 133.559 268.967 127.985 236.341 173.248C234.737 175.463 236.112 178.403 238.059 179.777C283.838 211.964 344.222 211.066 397.79 213.186C461.991 215.725 526.269 216.412 590.508 215.247C719.389 212.918 848.116 203.182 975.889 186.058C1010.84 181.381 1045.63 175.558 1080.56 170.671C1115.61 165.765 1151.64 163.245 1186.17 172.637C1186.17 169.564 1186.17 166.509 1186.17 163.435C1098.47 175.253 1010.79 187.07 923.199 199.688C879.787 205.931 836.413 212.365 793.097 219.103C755.355 224.964 717.308 230.31 680.329 240.179C641.786 250.469 604.559 266.314 574.11 292.602C571.647 294.721 572.697 298.52 575.083 300.105C605.743 320.474 643.695 320.932 678.955 316.274C719.179 310.967 759.116 301.613 798.652 292.621C882.46 273.531 965.294 250.183 1046.73 222.731C1092.42 207.325 1137.64 190.62 1182.39 172.656C1188.02 170.404 1185.56 161.164 1179.85 163.455C1101.81 194.763 1022.26 222.272 941.507 245.735C861.708 268.93 780.593 288.898 698.752 303.56C659.387 310.604 614.963 315.148 579.894 291.838C580.219 294.339 580.543 296.84 580.868 299.341C636.688 251.137 713.814 241.096 784.01 230.119C870.28 216.622 956.703 204.308 1043.2 192.415C1091.69 185.752 1140.18 179.204 1188.69 172.675C1193.56 172.026 1192.89 164.619 1188.69 163.474C1128.88 147.209 1065.39 163.855 1005.65 172.427C941.698 181.61 877.496 188.902 813.123 194.343C685.846 205.11 557.94 208.623 430.263 204.805C396.873 203.812 363.217 203.144 329.961 199.746C299.263 196.615 268.47 189.571 242.851 171.568C243.424 173.745 243.996 175.921 244.569 178.097C272.766 138.981 330.686 143.066 373.182 144.116C436.944 145.681 500.688 147.247 564.45 148.831C691.173 151.943 817.896 155.074 944.618 158.186C1016.25 159.942 1087.87 161.717 1159.5 163.474C1165.69 163.626 1165.59 154.329 1159.5 153.928C1003.13 143.83 846.761 133.731 690.409 123.632C534.821 113.59 379.253 103.53 223.665 93.488C184.377 90.8344 145.088 88.2953 105.8 85.7563C87.1104 84.5536 67.9435 84.42 49.4066 81.5946C33.7524 79.2083 16.9528 72.6793 11.0347 56.586C5.04026 40.3209 18.0218 29.0193 31.2134 22.2803C46.3521 14.5296 63.4191 11.2651 80.276 10.1197C97.2284 8.97423 114.257 9.81421 131.21 10.6542C150.376 11.6087 169.543 12.6587 188.71 13.8041C340.823 22.9294 492.574 38.0872 643.466 59.2968C794.796 80.5636 945.268 107.882 1094.4 141.157C1112.39 145.166 1130.35 149.27 1148.31 153.451C1154.29 154.845 1156.85 145.643 1150.85 144.249Z" fill="#0092FF"/>
</svg>
