<svg width="948" height="736" viewBox="0 0 948 736" fill="none" xmlns="http://www.w3.org/2000/svg">
<path d="M0.0783689 686.931C0.0783669 709.368 201.265 728.248 284.888 733.92L284.388 736L947.781 736L947.781 175L471.878 175L471.878 345.771L318.419 345.771C289.787 345.771 -5.51389 349.488 0.0783944 394.51C0.0783921 421.425 289.787 443.248 318.419 443.248C289.787 443.248 -5.51389 446.965 0.0783859 491.987C0.0783836 518.903 289.787 540.726 318.419 540.726C289.787 540.726 -5.5139 544.443 0.0783774 589.465C0.0783752 614.369 248.072 634.908 307.826 637.84L307.723 638.283C247.254 638.988 -5.09338 645.285 0.0783689 686.931Z" fill="#0092FF"/>
</svg>
