<svg width="638" height="1187" viewBox="0 0 638 1187" fill="none" xmlns="http://www.w3.org/2000/svg">
<path d="M637.974 822.501C637.604 753.184 629.852 291.119 558.237 300.13C515.415 300.13 480.504 753.581 478.579 822.501H478.5H478.474C478.104 753.184 470.352 291.119 398.737 300.13C355.915 300.13 321.004 753.581 319.079 822.501H319H318.974C318.604 753.184 310.879 291.119 239.263 300.13C196.442 300.13 161.53 753.581 159.605 822.501H159.526H159.5C159.104 753.184 151.352 291.119 79.7632 300.13C36.9416 300.13 2.03034 753.581 0.105472 822.501H0L0 827.522L0 1187H638V827.522L637.974 822.501Z" fill="#0092FF"/>
<path d="M326.604 197.049C326.604 197.049 313.436 233.45 279.999 222.825C248.372 212.761 231.147 177.749 242.506 146.543C248.887 129.006 264.412 111.562 298.753 102.84C298.753 102.84 381.978 98.1905 387.47 168.793C388.968 188.031 378.202 206.458 360.244 213.557C348.37 218.238 335.123 217.114 326.604 197.049Z" fill="#0092FF"/>
<path d="M298.755 102.84C298.755 102.84 292.124 28.5402 358.467 2" stroke="#0092FF" stroke-width="3.12203" stroke-miterlimit="10"/>
<path d="M367.391 85.6102C357.264 84.047 334.129 70.2086 322.612 27.3601C335.356 33.0092 362.153 52.568 367.391 85.6102Z" fill="#0092FF"/>
</svg>
